<?xml version="1.0" encoding="UTF-8"?>
<svg id="Parroquias_Oviedo" data-name="Parroquias Oviedo" xmlns="http://www.w3.org/2000/svg" width="259.02mm" height="139.79mm" viewBox="0 0 734.22 396.27">
  <g id="Trubia">
    <path id="Trubia-2" data-name="Trubia" d="M141.94,260.28l-.44,1.54-1.02.83-.34.89-.99-.15-.56.8.87,1.54.46.48.13,1.1.61,3.07,9.19.32.27,8.62-6.23,3.16-6.44,4.91.03.27-1.51,1.43-1.56,1.1-2,.92-.74.18-.66.16-.56.48-4.19,3.57-.71.96-1.97,3.47-.31.32-1.45,1.49-.47.49-3.2,2.59-5.07,4.92-3.61,2.38-1.03,1.13-1.47,2.98-11.57.73-8.69,4.44-5.63,2.89-9.81,5.02-1.96-.59-14.27-4.28-.31.23-3.28,2.39-3.54,3.15-3.52,3.56-1.72-5.23-3.31-10.05-6.43-16.66-4.69-6.81-2.18-3.17-3.67-5.33-3.22-2.79-6.56-5.67-1.98-1.73-1.15-1.01-.75-1.23-5.73-12.47-2.96-7.84,1.35-1.51.96-1.07,8.61-8.7.86.02,5.07,1.72.7.14.7.14.81-.37,11.83-5.4,2.5-1.58.95-.84,3.69-4.79,1.18-2.75,2.36-1.02.84-1.08,1.69-1.2.95-.45.98-.47,2.87-1.37.79-.65,2.26-2.44.48-.33,4.07-1.17.31-.16,4.33-2.23,3.88-2.34,1.43-1.06,1.72-1.26.36-.09,1.69-.4.03-.52.07-1.5,3.82-3.45,1.52-.16,1.3-.13.5-.15,1.81-.52,4.37-2.38,3.69-1.37,3.24-1.94.68-.25,5.31-1.97,1.51-.7.97-.45.97-.31.82-.26,5.5-.91,1.01-.17.56-.09.32-.38,2.46-2.92,2.01-2.08,6.2-5.48,1.02-.8,1.91-1.49,1.81-1.42,1.72-1.35.1-.09,1.04.51,4.02,4.19,1.6-.16,1.32-.16.5-.07,1.64,3.58-1,.74-4.26,6.6,1.71,1.08,3.31.67-.22,1.04.28.12,1.45.66-.96,2.45-.61,1.2-.68,1.47-.89,1.7-.74.85-.25.9-.04,1.01.46.63.87.93,1.23.75,1.05.41,1.27.86,1.15.65,3.53-.03,1.8-.07,3.45-.19,2.88-.05,2.55.21.63.78.1.83-.18,2.12-.32,1.37-.19.82-.38,1.97-.75,1.57-1.07,1.78-1.56,1.67-.55,1.46-.06,1.83.58.85-3.94.13-2.57,3.41-1.6,3.7-2.39,5.07.54,2.62.53,2.23,5.92,5.44.2,7.78-3.89,2.54" vector-effect="none" fill="#99e61e" fill-rule="evenodd" isolation="isolate"/>
    <path d="M70.88,262.38v-3.95h-1.56v-.92h4.24v.92h-1.56v3.95h-1.13M74.19,262.38v-4.87h2.11c.44,0,.81.07,1.13.21.32.14.56.34.73.61.17.26.26.58.26.95s-.09.67-.26.94c-.17.26-.42.46-.73.6-.32.14-.69.21-1.13.21h-1.48l.5-.49v1.85h-1.13M77.28,262.38l-1.22-1.77h1.2l1.23,1.77h-1.22M75.31,260.66l-.5-.53h1.42c.35,0,.61-.08.78-.23.17-.15.26-.36.26-.62s-.09-.48-.26-.63c-.17-.15-.43-.22-.78-.22h-1.42l.5-.54v2.76M81.39,262.47c-.69,0-1.23-.19-1.62-.58-.39-.39-.58-.93-.58-1.65v-2.73h1.13v2.69c0,.46.1.8.29,1,.19.2.46.31.8.31s.61-.1.8-.31c.19-.2.29-.54.29-1v-2.69h1.11v2.73c0,.71-.19,1.26-.58,1.65-.39.39-.93.58-1.62.58M84.74,262.38v-4.87h2.38c.61,0,1.07.12,1.38.35.31.23.46.54.46.92,0,.26-.06.48-.19.66-.13.19-.3.33-.51.43-.22.1-.47.15-.75.15l.13-.29c.31,0,.58.05.81.15.24.1.42.25.55.44.13.19.2.43.2.72,0,.42-.16.74-.49.98-.33.23-.81.35-1.45.35h-2.52M85.86,261.53h1.32c.29,0,.51-.05.66-.14.15-.1.23-.25.23-.46s-.08-.36-.23-.46-.37-.15-.66-.15h-1.4v-.82h1.2c.27,0,.48-.05.63-.14.15-.1.22-.24.22-.43s-.07-.33-.22-.43c-.15-.1-.36-.14-.63-.14h-1.12v3.17M90.02,262.38v-4.87h1.13v4.87h-1.13M91.78,262.38l2.17-4.87h1.11l2.18,4.87h-1.18l-1.78-4.3h.45l-1.79,4.3h-1.16M92.87,261.34l.3-.86h2.5l.31.86h-3.11" vector-effect="none" fill="#fff"/>
  </g>
  <g id="Piedramuelle">
    <path id="Piedramuelle-2" data-name="Piedramuelle" d="M346.61,182.33l-.24,1.66-1.97,2.93-3.87,3.4-4.65,3.74-1.42,1.61-1.29,3.61-.29,1.33-.1,1.89.77,1.38.77.45,1.39.24.99.37.87.16.59.22-.2,1.14-.3.41-.25.94-.54.94.04.52.3.8-.51,1.31-.46,1.46-.68-.13-6.57,4.23-1.22.78-.14.71.37.87-1.16.19-.66.18-.3.22-.07.29.27.42.18.42.03.23-.33.16-.45.17-.3.64-.6.11-.68.23-.45.25-.35.32-.35-.14-.32-.16-.48-.19-.56-.08-.79-.03-.59.02-.39.06-.4.27-.48.13h-.22s-.24-.16-.24-.16l-.19.29-.22.23-.6.23-3.16,1.22-3.08-1.01-.83-.13-3.11,1.13-2.57,1.25-5.84-.05-2-.09-2.86-.19-.52.15-1.22.07-1.02.02.31.62-2.63.47-1.85.15-6.93-.41-1.74-.48-8.31-2.13-7.24,1.67-.33-.41-.26-.3-.21-.17-.42.09-.61-.46-.4-.25-.44-.14-.31-.05-.18-.23-.08-.16-.14-.52-.03-.54-.03-.48.07-.3-.9-.73-.46-1.13-.8-.7-.34-.77-.12-.46-.12-.51-.11-.16-.21-.09-.43-.78-.27-.48-.38-1.9v-.96s.06-1.86.06-1.86l-.48-1.02-.45-1.52-.07-.84.11-1.57,1.24-1.87,1.05-.82.79-.64,1.61-1.37.31-.24,1.7-.5,2.28-.73,2.94-.91.44-1.08-.36-1.08.54-.16.26-.1,1.26-.53.3-.26.13-.22.23-.08.11.19h.19s.67-.37.67-.37l1.79-.71.44-.2.92-.54.27-.14.84-.31.27-.03,3-2.91,1.53-.78h1.04s.33.41.33.41l.95-.12,1.15.1h1.09s.81-.08.81-.08l1.04-.63.83-.68.85-.4.25.05-.05.4-.09.33.04.4.91.16,1.45.3,1.47.36,1.23.57,1.26.49.71-.02.63-.36.8-.62.79-.84.63-.49.83.07.79.41.67.37,1.07.1,1.18-.07.7-.28.15-.48.04-.48.31-.87.79-.67,1.59-.21,1.97.42,1.31.23,1.26.48h1.42s.63-.48.63-.48l1.1-.5.77.02,1.25.27,1.25.14,2.31.12,1.12-.16.99-.28.86-.5.51-.53,1.05-.33,2.44.33,2.77-.76,2.81.62,1.44-1.24.64-1.12,1.49-.44,1.56-.36,1.69-.42.76-.24,1.16-.33.98-.07.9-.06.76-.07.62-.02h.78s.94-.06.94-.06l1.77.43" vector-effect="none" fill="#87ebaa" fill-rule="evenodd" isolation="isolate"/>
    <path d="M270.14,209.52v-4.87h2.11c.44,0,.81.07,1.13.21.32.14.56.34.73.61.17.26.26.58.26.95s-.09.67-.26.94-.42.47-.73.61c-.32.14-.69.21-1.13.21h-1.48l.5-.51v1.85h-1.13M271.26,207.8l-.5-.54h1.42c.35,0,.61-.07.78-.22.17-.15.26-.35.26-.62s-.09-.48-.26-.63c-.17-.15-.43-.22-.78-.22h-1.42l.5-.54v2.76M275.18,209.52v-4.87h1.13v4.87h-1.13M278.61,206.61h2.34v.88h-2.34v-.88M278.7,208.62h2.65v.9h-3.77v-4.87h3.68v.9h-2.56v3.06M282.13,209.52v-4.87h2.21c.53,0,1,.1,1.4.3s.72.48.95.85c.23.36.34.79.34,1.29s-.11.92-.34,1.28c-.23.36-.54.65-.95.85-.4.2-.87.3-1.4.3h-2.21M283.26,208.6h1.03c.32,0,.61-.06.85-.18.24-.12.42-.3.56-.53.13-.23.2-.49.2-.8s-.07-.58-.2-.8c-.13-.22-.32-.4-.56-.52-.24-.12-.52-.18-.85-.18h-1.03v3.02M287.89,209.52v-4.87h2.11c.44,0,.81.07,1.13.21.32.14.56.34.73.61.17.26.26.58.26.95s-.09.67-.26.94c-.17.26-.42.46-.73.6-.32.14-.69.21-1.13.21h-1.48l.5-.49v1.85h-1.13M290.99,209.52l-1.22-1.77h1.2l1.23,1.77h-1.22M289.02,207.8l-.5-.53h1.42c.35,0,.61-.08.78-.23.17-.15.26-.36.26-.62s-.09-.48-.26-.63c-.17-.15-.43-.22-.78-.22h-1.42l.5-.54v2.76M292.29,209.52l2.17-4.87h1.11l2.18,4.87h-1.18l-1.78-4.3h.45l-1.79,4.3h-1.16M293.38,208.48l.3-.86h2.5l.31.86h-3.11M298.21,209.52v-4.87h.93l2.07,3.44h-.49l2.04-3.44h.93v4.87s-1.04,0-1.04,0v-3.25s.19,0,.19,0l-1.63,2.73h-.51l-1.66-2.73h.24v3.25h-1.06M307.09,209.6c-.69,0-1.23-.19-1.62-.58-.39-.39-.58-.93-.58-1.65v-2.73h1.13v2.69c0,.46.1.8.29,1,.19.2.46.31.8.31s.61-.1.8-.31c.19-.2.29-.54.29-1v-2.69h1.11v2.73c0,.71-.19,1.26-.58,1.65-.39.39-.93.58-1.62.58M311.48,206.61h2.34v.88h-2.34v-.88M311.57,208.62h2.65v.9h-3.77v-4.87h3.68v.9h-2.56v3.06M315.01,209.52v-4.87h1.13v3.95h2.44v.92h-3.57M319.32,209.52v-4.87h1.13v3.95h2.44v.92h-3.57M324.68,206.61h2.34v.88h-2.34v-.88M324.76,208.62h2.65v.9h-3.77v-4.87h3.68v.9h-2.56v3.06" vector-effect="none" fill="#fff"/>
  </g>
  <g id="San_Claudio">
    <path id="San_Claudio-2" data-name="San_Claudio" d="M340.77,179.7l1.23.81.96.23,2.62.27,1.03,1.32-1.77-.43-.94.06h-.78s-.62.02-.62.02l-.76.07-.9.06-.98.07-1.16.33-.76.24-1.69.42-1.56.36-1.49.44-.64,1.12-1.44,1.24-2.81-.62-2.77.76-2.44-.33-1.05.33-.51.53-.86.5-.99.28-1.12.16-2.31-.12-1.25-.14-1.25-.27-.77-.02-1.1.5-.63.49h-1.42s-1.26-.49-1.26-.49l-1.31-.23-1.97-.42-1.59.21-.79.67-.31.87-.04.48-.15.48-.7.28-1.18.07-1.07-.1-.67-.37-.79-.41-.83-.07-.63.49-.79.84-.8.62-.63.36-.71.02-1.26-.49-1.23-.57-1.47-.36-1.45-.3-.91-.16-.04-.4.09-.33.05-.4-.25-.05-.85.4-.83.68-1.04.63-.81.09h-1.09s-1.15-.1-1.15-.1l-.95.12-.33-.41h-1.04s-1.53.77-1.53.77l-3,2.91-.27.03-.84.31-.27.14-.92.54-.44.2-1.79.71-.67.36h-.19s-.11-.18-.11-.18l-.23.08-.13.22-.3.26-1.26.53-.26.1-.54.16-.8.18-1.08.12-.79.05h-.59s-.3-.03-.3-.03l-.3-.05-1.53-.33-.7.12-.25.21-.27.17.21.19-.22.13-.31-.27-1.04-.2-1.17-.99.31-.16-.32-.43-.24-.66-1.65.08-.88.08-2.71-.08v.93s-.32.4-.32.4l-.5-.03-.85-.41-1.22-.21-.81.26-1.03.18-2.59.17-.76.28-1.07-.06-1.47-.44-1.18-.47-.49-.46-.35-.4-.34-.4-.57-.12-.66-.11-.54-.14-.42-.25-.81-.32-.54-.07-.73.06-.86-.08-.34-.34-.33-.64.13-1.01-2.45-1.27-.38.66-.35.68-.35.18-.24.03-.63-.2-.51-.1-.44.08-.44.14-.57.49-.43.34-.5.14-.81-.22-.94-.56-.88-1.01-.29-1.13.21-1.19.23-.72-.47-.53-.66-.33-1.24.12-1.03.16-.79.15-1.16-.17-.65.12-5.62,3.46-5.82,1.92-3.14-1.38-4.65-5.66-5.25,1.51-3.4,1.77-1.12-2.43,4.08-2.35,1.24.05,3.3-1.46-.71-1.86,2.27-3.14-.62-.61-1.57-.78-1.53-.44-1.64-.35-2.15.06-2.51.13-1.39.06-.45-3.89,1.34-.34.49-.25.48-.53,1.36-2.47-.17-.41-.51-.12-.86-.11-.98-.1-1.27.7-5.52-.81-1.67-.24-.39-.14-.28-.54-.11-.48-.21-.32-.57-.23-.41-.17.12-1.88-.24-.71-.35-.27-.45-.45v-.45s.25-.72.25-.72l-.21-.65.05-.7.31-.64.28-.57-.36-.76-.84-.86-.79-.76-.87-.63-.63-.48-.68-.82-.18-.73.21-.64.32-.45.93-.41.7-.22.99-.05.79.11.66-.12.34-.27.36-.55.34-.7,1.08-.21,2.75-1.13,1.17-.3.84-.35.56-.24,2.86-.87,2.31-.71,3.42-.21,2.16.38,1.76.87,1.13,1.46,1.79,5.01.76,2.12.95,1.18,2.02,1.54,1.98.65,1.67-.11.76-.05,2.21-.65.13-.04,1.99-1.21,2.36-2.3,3.27-3.37.76-.78,2.24-1.36h.02s2.54-.91,2.54-.91l2.48-.62,7.76-2.61,2.52-.45,1.41-.83.34-.64.43-.79.17.09.03-.05,6.99,2.7,1.29.54,6.49,2.51.7.32,6.85,2.74,7.32,2.84,5.43-1.39,4.31-.32,5.56-.28,2.64.11,3.25.65,5.7,1.06h2.13s2.91.17,2.91.17l2.56-.17,4.08-.49,2.76-.44-.03-.45.15-1.25.73.02,6.72-.26,2.25.07,1.75.06,1.43.14,6.27,5.75-.84,2.22-.6,2.89-.3,2.48,5.27-.49.17,1.09-.15,1.96-.26,1.17-.28,1.78-.32,2.75-.32,1.74-.12,1.53.12.8.51.81.75.84.47.61.33.72.73.46.66.47.91-.17,2.62-.56,2.16-.73" vector-effect="none" fill="#eb667c" fill-rule="evenodd" isolation="isolate"/>
    <path d="M232.7,173.65c-.39,0-.76-.05-1.12-.16-.36-.1-.64-.24-.86-.41l.38-.85c.21.15.46.27.74.37s.57.14.87.14c.22,0,.4-.02.54-.07s.24-.11.3-.18c.06-.08.1-.17.1-.27,0-.13-.05-.23-.15-.31-.1-.08-.24-.14-.4-.19-.17-.05-.35-.1-.55-.14-.2-.04-.4-.1-.61-.16s-.39-.15-.55-.25c-.17-.1-.3-.24-.41-.4-.1-.17-.16-.38-.16-.64,0-.28.08-.53.23-.76.15-.23.38-.41.68-.55.3-.14.69-.21,1.14-.21.31,0,.61.04.9.11s.56.18.79.32l-.35.86c-.23-.13-.45-.23-.68-.29s-.45-.09-.67-.09-.4.03-.54.08c-.14.05-.24.12-.3.2-.06.08-.09.18-.09.28,0,.13.05.23.15.3.1.08.24.14.4.18.17.05.35.09.55.14.2.05.4.1.61.16.2.06.39.14.55.24.17.1.3.24.41.4.1.17.16.38.16.63,0,.27-.08.52-.23.75s-.38.41-.69.55c-.3.14-.69.21-1.15.21M235.02,173.56l2.17-4.87h1.11l2.18,4.87h-1.18l-1.78-4.3h.45l-1.79,4.3h-1.16M236.11,172.52l.3-.86h2.5l.31.86h-3.11M240.94,173.56v-4.87h.93l2.87,3.51h-.45v-3.51h1.11v4.87h-.93l-2.88-3.51h.45v3.51h-1.11M250.71,173.65c-.38,0-.72-.06-1.05-.18-.32-.12-.6-.3-.84-.53-.24-.23-.42-.49-.55-.8-.13-.31-.2-.64-.2-1.01s.07-.7.2-1.01c.13-.31.32-.57.56-.8.24-.23.52-.4.84-.53.32-.12.67-.18,1.05-.18.42,0,.8.07,1.14.22.34.15.63.36.86.64l-.72.67c-.17-.19-.35-.33-.56-.43-.2-.1-.43-.14-.67-.14-.23,0-.44.04-.63.11-.19.07-.35.18-.49.32-.14.14-.25.3-.32.49-.08.19-.11.4-.11.63s.04.44.11.63c.08.19.18.35.32.49.14.14.3.25.49.32.19.07.4.11.63.11.24,0,.46-.05.67-.14.2-.1.39-.24.56-.43l.72.67c-.23.28-.52.5-.86.65-.34.15-.72.22-1.15.22M253.42,173.56v-4.87h1.13v3.95h2.44v.92h-3.57M257.09,173.56l2.17-4.87h1.11l2.18,4.87h-1.18l-1.78-4.3h.45l-1.79,4.3h-1.16M258.18,172.52l.3-.86h2.5l.31.86h-3.11M265.18,173.65c-.69,0-1.23-.19-1.62-.58-.39-.39-.58-.93-.58-1.65v-2.73h1.13v2.69c0,.46.1.8.29,1,.19.2.46.31.8.31s.61-.1.8-.31c.19-.2.29-.54.29-1v-2.69h1.11v2.73c0,.71-.19,1.26-.58,1.65-.39.39-.93.58-1.62.58M268.53,173.56v-4.87h2.21c.53,0,1,.1,1.4.3.4.2.72.48.95.85.23.36.34.79.34,1.29s-.11.92-.34,1.28c-.23.36-.54.65-.95.85-.4.2-.87.3-1.4.3h-2.21M269.66,172.64h1.03c.32,0,.61-.06.85-.18.24-.12.42-.3.56-.53.13-.23.2-.49.2-.8s-.07-.58-.2-.8c-.13-.22-.32-.4-.56-.52-.24-.12-.52-.18-.85-.18h-1.03v3.02M274.29,173.56v-4.87h1.13v4.87h-1.13M279.06,173.65c-.39,0-.74-.06-1.07-.19-.33-.13-.61-.3-.85-.53-.24-.23-.42-.49-.56-.8s-.2-.64-.2-1,.07-.7.2-1,.32-.57.56-.8c.24-.23.52-.4.85-.53s.68-.19,1.06-.19.74.06,1.06.19c.32.13.6.3.84.53.24.23.43.49.56.8s.2.64.2,1.01-.07.7-.2,1.01c-.13.31-.32.58-.56.8-.24.22-.52.4-.84.53-.32.13-.67.19-1.05.19M279.05,172.69c.22,0,.42-.04.6-.11.18-.07.34-.18.48-.32.14-.14.25-.3.32-.49.08-.19.11-.4.11-.63s-.04-.44-.11-.63c-.08-.19-.18-.35-.32-.49-.14-.14-.3-.25-.48-.32-.19-.07-.39-.11-.61-.11s-.42.04-.6.11c-.18.07-.34.18-.48.32-.14.14-.25.3-.32.49-.08.19-.11.4-.11.63s.04.44.11.63c.08.19.18.36.32.5.14.14.3.25.48.32.19.07.39.11.61.11" vector-effect="none" fill="#fff"/>
  </g>
  <g id="La_Manjoya" data-name="La Manjoya">
    <path id="La_Manjoya-2" data-name="La Manjoya" d="M458.49,211.31l-.12,1.17-.05,1.09.48.4-.34.38-.72.13.55,1.17.76.42.18.42.41.47.17.17-1.05.68.67.58,1.91-.24,1.2-.87-.94-3.7.14-1.77.3-1.28,1.58.25,1.91.09,5.11,1.93,3.19-.3,2.02-.18,1.63-.17,2.79,2.09,3.26-.57,4.61,3.86.19,1.19-2.72.88-.23.1,1.67,2.17.43,3.02v4.92s-11.27,8.43-11.27,8.43l-2.13,1.78-3.74,5.91-11.15.17-12.57-1.5-12.37,11.03-3.89,3.53-7,.25.05,2.35-.7.08-.56.06-.35.07-.48.12-.4.16-.43.24-.24.23-.33.17-.47.13-.64.12-1.43.28.11.18-.09.18-.13.17.65,1.17.07.48.03.52-.02.27-.05.39-.33.33-.55.25-.7.33-.4.26-.25.36-.29.44-.15.73-.06.22-.48.77-.07,1.06.38.86.12.64-.48,1.06-8.27,2.21-.31.32-.59.23-.36.33-.24.39-3.68-.7-1.02.05-5.67.7-.72,1.2-.5-.83-1.28-2.57-.23-.04-3.95-1.01-.16-.04.04-.27.14-.82-1.57-1.82-.35-.4-2.83-2.68h0s-.62-.61-.62-.61l-.26.03-1.22.14-2.61.31.24-1.08h0l.39-.71.28-.42.38-.48.47-.5.54-.5.79-.62.78-.53,1.46-.85,2.23-1.24,2.18-1.16.64-.4.58-.43.9-.72.6-.67.46-.41.38-.66.36-.71.31-.73.24-.81.05-.35.1-.78.15-2.47.07-1.74.18-2.76.23-4.46.18-1.34.16-.81.16-.71.39-1.38.29-.75.79-1.69.39-.74.5-.83.55-.77,1.12-1.45.94-1.02.66-.67.71-.68.78-.66.96.07,1.14-.1,1.2-.22,1.55-.59,1.25-.91.72-.9.97-1.38.11-1.94,3.03-2.28,1.14-.85,3.87-2.86,1.7-1.34,4.46-3.5.61-.09,1.18-.13.98-.1,1.27-.04,1.45-.02h.26s.95.02.95.02l1.13.1.42.06,1.23.31,1.85.39,1.82.11,2.09.05.79-.05,1.42-.12.97-.15,1.33-.24,1.6-.45,1.78-.59,2.05-.63,1.29-.32,1.13-.13.85-.16,1.32-.11,1.43-.04,1.49.07,1.46.17,1.19.2-.02,1.43" vector-effect="none" fill="#7ed43d" fill-rule="evenodd" isolation="isolate"/>
    <path d="M408.61,241.49v-4.87h1.13v3.95h2.44v.92h-3.57M412.29,241.49l2.17-4.87h1.11l2.18,4.87h-1.18l-1.78-4.3h.45l-1.79,4.3h-1.16M413.38,240.44l.3-.86h2.5l.31.86h-3.11M420.13,241.49v-4.87h.93l2.07,3.44h-.49l2.04-3.44h.93v4.87s-1.04,0-1.04,0v-3.25s.19,0,.19,0l-1.63,2.73h-.51l-1.66-2.73h.24v3.25h-1.06M426.21,241.49l2.17-4.87h1.11l2.18,4.87h-1.18l-1.78-4.3h.45l-1.79,4.3h-1.16M427.29,240.44l.3-.86h2.5l.31.86h-3.11M432.13,241.49v-4.87h.93l2.87,3.51h-.45v-3.51h1.11v4.87h-.93l-2.88-3.51h.45v3.51h-1.11M438.54,241.57c-.33,0-.63-.06-.91-.18-.28-.12-.5-.3-.68-.53l.63-.75c.13.18.28.31.42.4.15.09.31.14.48.14.46,0,.69-.27.69-.81v-2.32h-1.71v-.9h2.83v3.16c0,.6-.15,1.05-.45,1.35-.3.3-.73.45-1.31.45M443.85,241.57c-.39,0-.74-.06-1.07-.19-.33-.13-.61-.3-.85-.53-.24-.23-.42-.49-.56-.8s-.2-.64-.2-1,.07-.7.2-1,.32-.57.56-.8c.24-.23.52-.4.85-.53s.68-.19,1.06-.19.74.06,1.06.19c.32.13.6.3.84.53.24.23.43.49.56.8s.2.64.2,1.01-.07.7-.2,1.01c-.13.31-.32.58-.56.8-.24.22-.52.4-.84.53-.32.13-.67.19-1.05.19M443.84,240.61c.22,0,.42-.04.6-.11.18-.07.34-.18.48-.32.14-.14.25-.3.32-.49.08-.19.11-.4.11-.63s-.04-.44-.11-.63c-.08-.19-.18-.35-.32-.49-.14-.14-.3-.25-.48-.32-.19-.07-.39-.11-.61-.11s-.42.04-.6.11c-.18.07-.34.18-.48.32-.14.14-.25.3-.32.49-.08.19-.11.4-.11.63s.04.44.11.63c.08.19.18.36.32.5.14.14.3.25.48.32.19.07.39.11.61.11M448.45,241.49v-1.99l.26.68-2.14-3.56h1.2l1.64,2.73h-.69l1.65-2.73h1.11l-2.14,3.56.25-.68v1.99h-1.13M450.92,241.49l2.17-4.87h1.11l2.18,4.87h-1.18l-1.78-4.3h.45l-1.79,4.3h-1.16M452.01,240.44l.3-.86h2.5l.31.86h-3.11" vector-effect="none" fill="#fff"/>
  </g>
  <g id="Olloniego">
    <path id="Olloniego-2" data-name="Olloniego" d="M689.03,305.41l-.2,1.38-1.01,1.64-.82.7-1.05.89-.65.93-.52,1.55.23,1.46-.27.66-1.48,1.51-2.76.93-1.17,1.18-.2.8.46,1.15.18.44-.18.49-1.28.83-1.76.59-3.4,1.14-.34-.02-.85-.05-1.73-.3-1.9.45-.58.14-4.16,2.12-3.54,2.61-2.11,2.17-4.65,3.56-1.01.34-1.15.07-.48.23-.11.43,1.65,3.55.11,1.06.07.65v.03s-.78,1.77-.78,1.77l-.91,1.11-.91,1.71.51,6.06.49.38.32.25.94.39.21.21.62.61.09.48-.63,2.18,1.02,2.94-.37,2.06.18.28,3.3,2.23.11,1.61-.18,1.95.83,2.91.63,2.21-1.21.35-1.68.49-4.47,2.47-1,.75-.28.21-.37.28-.55.91-.42.71-.91,1.51-.13.21-.63,1.04-3.69,3.03-2.1.94-2.07,2.29-4.49,2.08-2.05.53-2.13.97-1.27,1.04-.71,1.54-.76,1.65-.33.33-.02.02-2.24.83-.99.02-.6-.15-2.2-1.27-.73-.17-4.99.02-6.81.03-5.29-.3-1.76.38-2.83-1.25-3.59-2.1-1.37-.66-3.79-1.82-1.66-.46-.66-.18-.42-.12-4.49-.5-3.99-.45-1.81-.75-1.92-1.57-3.13-3.54-.94-.41-1.16-.16-1.35-.66-1.61-1.45-1.97-2.6-.35-.46-.42-.56-2.11-.65-3.09-1.2-6.83-1.54-2.07-.48-3.72-.54-1.91.09-5.4.88-2.73.86-1.81.02-2.13.24-3.26.85-.89.09-2.43-.83-.15-.05h-.69s-1.63.35-1.63.35l-2.36,1.09-1.21.89-1.34.98-.72.86-.88.24-1.68.06h-3.5s-1.05,0-1.05,0l-.85.17-.86.44-2.04,1.03-4.19.59-2.72,1.03-.99.1-.18.02-1.74.17-1.66-.27-.83-.87-.48-.24-.4-.2-1.4-.4-.82.05-3.95.98-.68.17-.95.07-.41-.11-1.36-.36-1.13-.19-1.7.19-1.39.49-.35.17-1.78.87-1.97,1.49-.81-.41,4.3-2.85,23.61-15.66-.95-.51-1.42-.39-1.79-.49-3.91.34-1.73-.22-.78-.32-3.89-1.59-2.37-1.41-.38-.37-.48-.47-.82-1.43.29-1.17.29-1.16.48-1.02.76-.77.17-.6.34-1.17,2.13-.94.81-.19.5-.28.21-.12.3-.39.63-.83.04-.67-6.93-2.33-19.3-6.55-5.59-1.91-.68-.37-.17-.79.05-.46.35-2.37.21-.49,1.35-.71.5-.52.44-1.07.55-.23,3.13-.71,1.25-.75,4.65-5.03.63-1.37.16-1.47.6-.57,1.99-.36,1.45-.27.35-.06.68-.26,3.11-2.27.46.26,1.14.41,11.12,5.1.46-.36.67-.79.74-.58,1.12-.28,1.22.22,1.3.42,3.19,1.37,2.51.75,1.75.67,1.27.28,2.02.79,2.74.85,1.97.49,2.5-.45,1.78-.72,2.01-1.71,7.93,1.66,9.61-1.66,10.15-2.75,3.08-.98,14.01-3.62,24.09-5.06,17.78-2.52,13.66-.85,17.78-.56,10.36-.21,5.51-.45,10.54-1.13,3.64-.43,13.02-.66,6.32-.47.28-.02-.22.27-.12.15.34.48v.02s1.65.52,1.65.52l.24.26" vector-effect="none" fill="#7a59d5" fill-rule="evenodd" isolation="isolate"/>
    <path d="M571.4,345.53c-.39,0-.74-.06-1.07-.19-.33-.13-.61-.3-.85-.53-.24-.23-.42-.49-.56-.8-.13-.31-.2-.64-.2-1s.07-.7.2-1c.13-.31.32-.57.56-.8.24-.23.52-.4.85-.53.32-.13.68-.19,1.06-.19s.74.06,1.06.19c.32.13.6.3.84.53.24.23.43.49.56.8s.2.64.2,1.01-.07.7-.2,1.01c-.13.31-.32.58-.56.8-.24.22-.52.4-.84.53-.32.13-.67.19-1.05.19M571.39,344.57c.22,0,.42-.04.6-.11.18-.07.34-.18.48-.32s.25-.3.32-.49c.08-.19.11-.4.11-.63s-.04-.44-.11-.63c-.08-.19-.18-.35-.32-.49-.14-.14-.3-.25-.48-.32-.19-.07-.39-.11-.61-.11s-.42.04-.6.11c-.18.07-.34.18-.48.32-.14.14-.25.3-.32.49-.08.19-.11.4-.11.63s.04.44.11.63c.08.19.18.36.32.5.14.14.3.25.48.32.19.07.39.11.61.11M574.79,345.45v-4.87h1.13v3.95h2.44v.92h-3.57M579.11,345.45v-4.87h1.13v3.95h2.44v.92h-3.57M585.56,345.53c-.39,0-.74-.06-1.07-.19-.33-.13-.61-.3-.85-.53s-.42-.49-.56-.8-.2-.64-.2-1,.07-.7.2-1,.32-.57.56-.8c.24-.23.52-.4.85-.53.32-.13.68-.19,1.06-.19s.74.06,1.06.19c.32.13.6.3.84.53.24.23.43.49.56.8s.2.64.2,1.01-.07.7-.2,1.01c-.13.31-.32.58-.56.8-.24.22-.52.4-.84.53-.32.13-.67.19-1.05.19M585.55,344.57c.22,0,.42-.04.6-.11.18-.07.34-.18.48-.32s.25-.3.32-.49c.08-.19.11-.4.11-.63s-.04-.44-.11-.63c-.08-.19-.18-.35-.32-.49-.14-.14-.3-.25-.48-.32-.19-.07-.39-.11-.61-.11s-.42.04-.6.11c-.18.07-.34.18-.48.32-.14.14-.25.3-.32.49-.08.19-.11.4-.11.63s.04.44.11.63c.08.19.18.36.32.5s.3.25.48.32c.19.07.39.11.61.11M588.95,345.45v-4.87h.93l2.87,3.51h-.45v-3.51h1.11v4.87h-.93l-2.88-3.51h.45v3.51h-1.11M594.47,345.45v-4.87h1.13v4.87h-1.13M597.9,342.54h2.34v.88h-2.34v-.88M597.99,344.54h2.65v.9h-3.77v-4.87h3.68v.9h-2.56v3.06M603.78,345.53c-.39,0-.74-.06-1.06-.18-.32-.12-.6-.3-.84-.53-.24-.23-.42-.49-.56-.8s-.2-.64-.2-1.01.07-.7.2-1.01c.13-.31.32-.57.56-.8.24-.23.52-.4.85-.53.32-.12.68-.18,1.07-.18.43,0,.82.07,1.17.22.35.14.64.35.87.63l-.72.67c-.18-.19-.37-.32-.58-.41-.21-.09-.44-.14-.68-.14s-.45.04-.65.11c-.19.07-.36.18-.5.32-.14.14-.25.3-.33.49-.08.19-.11.4-.11.63s.04.44.11.63c.08.19.19.36.33.5.14.14.31.25.5.32.19.07.4.11.64.11s.44-.04.65-.11c.21-.07.42-.19.62-.37l.64.81c-.26.2-.57.35-.92.46-.35.11-.7.16-1.05.16M604.72,344.76v-1.83h1.03v1.98l-1.03-.15M609.07,345.53c-.39,0-.74-.06-1.07-.19-.33-.13-.61-.3-.85-.53-.24-.23-.42-.49-.56-.8s-.2-.64-.2-1,.07-.7.2-1,.32-.57.56-.8c.24-.23.52-.4.85-.53s.68-.19,1.06-.19.74.06,1.06.19c.32.13.6.3.84.53.24.23.43.49.56.8s.2.64.2,1.01-.07.7-.2,1.01c-.13.31-.32.58-.56.8-.24.22-.52.4-.84.53-.32.13-.67.19-1.05.19M609.06,344.57c.22,0,.42-.04.6-.11.18-.07.34-.18.48-.32.14-.14.25-.3.32-.49.08-.19.11-.4.11-.63s-.04-.44-.11-.63c-.08-.19-.18-.35-.32-.49-.14-.14-.3-.25-.48-.32-.19-.07-.39-.11-.61-.11s-.42.04-.6.11c-.18.07-.34.18-.48.32-.14.14-.25.3-.32.49-.08.19-.11.4-.11.63s.04.44.11.63c.08.19.18.36.32.5.14.14.3.25.48.32.19.07.39.11.61.11" vector-effect="none" fill="#fff"/>
  </g>
  <g id="Loriana">
    <path id="Loriana-2" data-name="Loriana" d="M239.79,61.93l.51.07.74-.24.63-.54.42.27.49.9,5.22,3.98,4.4,4.24,5.35,6.76,2.38,1.49,1.64.21.56.04.57-.02.51-.08.38-.28.44-.51.41-.45.31-.53.48-.37.51-.23.48-.24.66-.12.46-.03.48.05.47.17.4.14.3.02,1.13-.17.39-.06.27-.1.16-.2.19-.45.16-.19.32-.1.43-.04.46.03.94.15.81.21,1,1.18.42.75,1.66.68.82.36.37.19.47.1.28-.05,1.4-.54.29-.02.16.11.14.35.27.83.38.75.21.34.26.33.45.42.48.29.51.15.66.21.22.33.24.44.25.3.3.24.26.09-.09.57v.33s.35.71.35.71l.56,1.26.85,1.82,1.73,4.3.42.67.57.45,1.51.4,3.35,1.05.61.18.5.23.28.31.19.42,1.2,2.4.12.58.2.53.82.82.59.59.35.44.24.67.1.57v.67l.17.95.32.68.93,1.29-.35,2.6.96,5.15.57,4.56.2,4.13-2.27,2.13-5.14,1.34-3.87,1.02,1.83,3.66,6.6,13.24-2.43,9.88h-2.13s-5.7-1.05-5.7-1.05l-3.25-.65-2.64-.11-5.56.28-4.31.32-5.43,1.39-7.32-2.84-6.85-2.74-.7-.32-6.49-2.51-1.29-.54-6.99-2.7-.03.05-.17-.09.68-1.28.4-5.77.07-.98.24-1.96.04-.31.13-.92-.7-2.1-1.18-1.13-.8-.12-.57-.13-.89.19-.91.19-1.91.72-4.83,2.44-1.47,1.07-1.23.44-1.85-.1-.67-.2-2.09-1.83-.42-.37-.13-.18-1.13-1.48-.03-.04.02-.19.03-.35v-.14s.05-.04.05-.04l2.06-2.45,1.98-1.85,3.83-3.57,1.93-2.34,3.06-3.64,1.55-1.46.5-.69.44-1.82-.03-.67-.93-1.52-.46-.48-.2-.21-1.93-1.06-2.38-.71-4.25-.52-12.03-.29-1.86-.29-1.31-.49-.2-.07-.44-.28-.24-.81.47-1.17,1.91-1.52,2.16-1.72,1.57-1.05.97-.65,2.03-1.37,1.16-1.96v-.21s.08-.92.08-.92l-.23-.74-1.41-1.22-3.07-.92-3.9-1.17-1.26-.18-1.19-.17-1.54-.22-1.98.03-1.34.35-1.98.12-1.15-.3-.19-.05-1.41-1.19-1.06-2.19.18-1.83,1.21-1.67,4.23-2.71,2.75-1.08.8-.13,1.79-.28,1.56.15,2.4.79.05.02.03.06,1.78,3.25,1.98,1.92,1.19.64,1.91.53,2.12.04,1.67-.31,1.15-.73,1.42-1.16,4.06-3.32.11-.09.03-.1.8-2.82.16-.58,1.21-2.88.63-1.5,1.25-2.33.78-1.45,2.62-6.07,1.67.16.28.49.61.45" vector-effect="none" fill="#d3512d" fill-rule="evenodd" isolation="isolate"/>
    <path d="M247.78,116.99v-4.87h1.13v3.95h2.44v.92h-3.57M254.22,117.07c-.39,0-.74-.06-1.07-.19-.33-.13-.61-.3-.85-.53s-.42-.49-.56-.8-.2-.64-.2-1,.07-.7.2-1,.32-.57.56-.8.52-.4.85-.53c.32-.13.68-.19,1.06-.19s.74.06,1.06.19.6.3.84.53c.24.23.43.49.56.8.13.3.2.64.2,1.01s-.07.7-.2,1.01c-.13.31-.32.58-.56.8-.24.22-.52.4-.84.53-.32.13-.67.19-1.05.19M254.21,116.11c.22,0,.42-.04.6-.11.18-.07.34-.18.48-.32.14-.14.25-.3.32-.49.08-.19.11-.4.11-.63s-.04-.44-.11-.63c-.08-.19-.18-.35-.32-.49-.14-.14-.3-.25-.48-.32-.19-.07-.39-.11-.61-.11s-.42.04-.6.11c-.18.07-.34.18-.48.32-.14.14-.25.3-.32.49-.08.19-.11.4-.11.63s.04.44.11.63c.08.19.18.36.32.5.14.14.3.25.48.32s.39.11.61.11M257.61,116.99v-4.87h2.11c.44,0,.81.07,1.13.21.32.14.56.34.73.61.17.26.26.58.26.95s-.09.67-.26.94c-.17.26-.42.46-.73.6-.32.14-.69.21-1.13.21h-1.48l.5-.49v1.85h-1.13M260.71,116.99l-1.22-1.77h1.2l1.23,1.77h-1.22M258.74,115.26l-.5-.53h1.42c.35,0,.61-.08.78-.23.17-.15.26-.36.26-.62s-.09-.48-.26-.63c-.17-.15-.43-.22-.78-.22h-1.42l.5-.54v2.76M262.65,116.99v-4.87h1.13v4.87h-1.13M264.41,116.99l2.17-4.87h1.11l2.18,4.87h-1.18l-1.78-4.3h.45l-1.79,4.3h-1.16M265.5,115.94l.3-.86h2.5l.31.86h-3.11M270.33,116.99v-4.87h.93l2.87,3.51h-.45v-3.51h1.11v4.87h-.93l-2.88-3.51h.45v3.51h-1.11M275.21,116.99l2.17-4.87h1.11l2.18,4.87h-1.18l-1.78-4.3h.45l-1.79,4.3h-1.16M276.29,115.94l.3-.86h2.5l.31.86h-3.11" vector-effect="none" fill="#fff"/>
  </g>
  <g id="Godos">
    <path id="Godos-2" data-name="Godos" d="M155.8,185.72l1.22,9.99,2.9,3.46,7.2,2.32,3.63,8.4,2.29,3.39,2.23,3.3,3.12,4.73,3.47,2.8,1.81,1.46,2.1,1.91,6.74,5.04v3.59s-.08,2.62-.08,2.62l4.77,6.2-1.78,1.12-1.86,1.24-1.56,1.33-2.31,2.24-.95,1.04-.82,1.36-.9,1.55-.91,1.31-.6.94-.37.57-.57,1.38-.29.83-.39.81-.63.69-.31.52-1.31.38-1.77.09-.77-.02-.51-.2-1.61-.26-1.66-.11-1.43-.18-1.6-.15-2.56-.43-1.71-.6-.57-.58-.32-.74.03-.92.51-1.16,1.37-.89,3.2-2.33-.17-1.07-.14-1.03.46-1.56,1.11-3.91.54-2.21.65-2.41.45-1.47-.14-1.04-.36-.82-.56-.67-.78-.62-.87-.51-1.2-.17-1.87-.29-1.7-.25-1.4-.55-3.03-1.2-3.26-1.43-2.59-.89-6.63-3.25-1.6-1.06-.58-.85.06-1.83.55-1.46,1.56-1.67,1.07-1.78.75-1.57.38-1.97.19-.82.32-1.37.18-2.12-.1-.83-.63-.78-2.55-.21-2.88.05-3.45.19-1.8.07-3.53.03-1.15-.65-1.27-.86-1.05-.41-1.23-.75-.87-.93-.46-.63.04-1.01.25-.9.74-.85.89-1.7.68-1.47.61-1.2.96-2.45.17-.42.58-1.41.74-1.14,1.12-1.19.94-.69,2.08-.96,2.02-.33,2.29-.34,1.51-.45.9-.39.86-1.12.44-1.26.52-1.42,4.77.22" vector-effect="none" fill="#1b31dc" fill-rule="evenodd" isolation="isolate"/>
    <path d="M153.65,223.76c-.39,0-.74-.06-1.06-.18-.32-.12-.6-.3-.84-.53-.24-.23-.42-.49-.56-.8-.13-.31-.2-.64-.2-1.01s.07-.7.2-1.01c.13-.31.32-.57.56-.8.24-.23.52-.4.85-.53.32-.12.68-.18,1.07-.18.43,0,.82.07,1.17.22s.64.35.87.63l-.72.67c-.18-.19-.37-.32-.58-.41-.21-.09-.44-.14-.68-.14s-.45.04-.65.11c-.19.07-.36.18-.5.32-.14.14-.25.3-.33.49-.08.19-.11.4-.11.63s.04.44.11.63c.08.19.19.36.33.5.14.14.31.25.5.32.19.07.4.11.64.11s.44-.04.65-.11c.21-.07.42-.19.62-.37l.64.81c-.26.2-.57.35-.92.46-.35.11-.7.16-1.05.16M154.59,223v-1.83h1.03v1.98l-1.03-.15M158.94,223.76c-.39,0-.74-.06-1.07-.19-.33-.13-.61-.3-.85-.53-.24-.23-.42-.49-.56-.8-.13-.31-.2-.64-.2-1s.07-.7.2-1c.13-.31.32-.57.56-.8s.52-.4.85-.53.68-.19,1.06-.19.74.06,1.06.19.6.3.84.53c.24.23.43.49.56.8.13.3.2.64.2,1.01s-.07.7-.2,1.01c-.13.31-.32.58-.56.8-.24.22-.52.4-.84.53-.32.13-.67.19-1.05.19M158.94,222.8c.22,0,.42-.04.6-.11.18-.07.34-.18.48-.32.14-.14.25-.3.32-.49.08-.19.11-.4.11-.63s-.04-.44-.11-.63c-.08-.19-.18-.35-.32-.49-.14-.14-.3-.25-.48-.32-.19-.07-.39-.11-.61-.11s-.42.04-.6.11c-.18.07-.34.18-.48.32-.14.14-.25.3-.32.49-.08.19-.11.4-.11.63s.04.44.11.63c.08.19.18.36.32.5.14.14.3.25.48.32s.39.11.61.11M162.34,223.68v-4.87h2.21c.53,0,1,.1,1.4.3s.72.48.95.85c.23.36.34.79.34,1.29s-.11.92-.34,1.28c-.23.36-.54.65-.95.85-.4.2-.87.3-1.4.3h-2.21M163.46,222.75h1.03c.32,0,.61-.06.85-.18.24-.12.42-.3.56-.53.13-.23.2-.49.2-.8s-.07-.58-.2-.8c-.13-.22-.32-.4-.56-.52-.24-.12-.52-.18-.85-.18h-1.03v3.02M170.46,223.76c-.39,0-.74-.06-1.07-.19-.33-.13-.61-.3-.85-.53-.24-.23-.42-.49-.56-.8-.13-.31-.2-.64-.2-1s.07-.7.2-1c.13-.31.32-.57.56-.8s.52-.4.85-.53c.32-.13.68-.19,1.06-.19s.74.06,1.06.19c.32.13.6.3.84.53.24.23.43.49.56.8s.2.64.2,1.01-.07.7-.2,1.01c-.13.31-.32.58-.56.8-.24.22-.52.4-.84.53-.32.13-.67.19-1.05.19M170.45,222.8c.22,0,.42-.04.6-.11.18-.07.34-.18.48-.32s.25-.3.32-.49c.08-.19.11-.4.11-.63s-.04-.44-.11-.63c-.08-.19-.18-.35-.32-.49-.14-.14-.3-.25-.48-.32-.19-.07-.39-.11-.61-.11s-.42.04-.6.11c-.18.07-.34.18-.48.32-.14.14-.25.3-.32.49-.08.19-.11.4-.11.63s.04.44.11.63c.08.19.18.36.32.5s.3.25.48.32c.19.07.39.11.61.11M175.45,223.76c-.39,0-.76-.05-1.12-.16-.36-.1-.64-.24-.86-.41l.38-.85c.21.15.46.27.74.37.29.1.57.14.87.14.22,0,.4-.02.54-.07.14-.04.24-.11.3-.18.07-.08.1-.17.1-.27,0-.13-.05-.23-.15-.31-.1-.08-.24-.14-.4-.19-.17-.05-.35-.1-.55-.14-.2-.04-.4-.1-.61-.16-.2-.06-.39-.15-.55-.25-.17-.1-.3-.24-.41-.4s-.16-.38-.16-.64c0-.28.08-.53.23-.76.15-.23.38-.41.68-.55.3-.14.69-.21,1.14-.21.31,0,.61.04.9.11s.56.18.79.32l-.35.86c-.23-.13-.45-.23-.68-.29s-.45-.09-.67-.09-.4.03-.54.08-.24.12-.3.2c-.06.08-.09.18-.09.28,0,.13.05.23.15.3.1.08.24.14.4.18s.35.09.55.14c.2.05.4.1.61.16.2.06.39.14.55.24.17.1.3.24.41.4.1.17.16.38.16.63,0,.27-.08.52-.23.75s-.38.41-.69.55c-.3.14-.69.21-1.15.21" vector-effect="none" fill="#fff"/>
  </g>
  <g id="Pintoria">
    <path id="Pintoria-2" data-name="Pintoria" d="M169.75,260.98l-12.9,7.5-3.22,1.13-1.47.17-2.32.93-9.19-.32-.61-3.07-.13-1.1-.46-.48-.87-1.54.56-.8.99.15.34-.89,1.02-.83.44-1.54,3.89-2.54-.2-7.78-5.92-5.44-.53-2.23-.54-2.62,2.39-5.07,1.6-3.7,2.57-3.41,3.94-.13,1.6,1.06,6.63,3.25,2.59.89,3.26,1.43,3.03,1.2,1.4.55,1.7.25,1.87.29,1.2.17.87.51.78.62.56.67.36.82.14,1.04-.45,1.47-.65,2.41-.54,2.21-1.11,3.91-.46,1.56.14,1.03.17,1.07-3.2,2.33-1.37.89-.51,1.16-.03.92.32.74.57.58,1.71.6" vector-effect="none" fill="#7cccd6" fill-rule="evenodd" isolation="isolate"/>
    <path d="M138.14,251.81v-4.87h2.11c.44,0,.81.07,1.13.21.32.14.56.34.73.61.17.26.26.58.26.95s-.09.67-.26.94-.42.47-.73.61c-.32.14-.69.21-1.13.21h-1.48l.5-.51v1.85h-1.13M139.27,250.08l-.5-.54h1.42c.35,0,.61-.07.78-.22.17-.15.26-.35.26-.62s-.09-.48-.26-.63c-.17-.15-.43-.22-.78-.22h-1.42l.5-.54v2.76M143.18,251.81v-4.87h1.13v4.87h-1.13M145.58,251.81v-4.87h.93l2.87,3.51h-.45v-3.51h1.11v4.87h-.93l-2.88-3.51h.45v3.51h-1.11M152.1,251.81v-3.95h-1.56v-.92h4.24v.92h-1.56v3.95h-1.13M157.78,251.89c-.39,0-.74-.06-1.07-.19-.33-.13-.61-.3-.85-.53-.24-.23-.42-.49-.56-.8-.13-.31-.2-.64-.2-1s.07-.7.2-1c.13-.31.32-.57.56-.8s.52-.4.85-.53c.32-.13.68-.19,1.06-.19s.74.06,1.06.19c.32.13.6.3.84.53.24.23.43.49.56.8s.2.64.2,1.01-.07.7-.2,1.01c-.13.31-.32.58-.56.8-.24.22-.52.4-.84.53-.32.13-.67.19-1.05.19M157.77,250.93c.22,0,.42-.04.6-.11.18-.07.34-.18.48-.32s.25-.3.32-.49c.08-.19.11-.4.11-.63s-.04-.44-.11-.63c-.08-.19-.18-.35-.32-.49-.14-.14-.3-.25-.48-.32-.19-.07-.39-.11-.61-.11s-.42.04-.6.11c-.18.07-.34.18-.48.32-.14.14-.25.3-.32.49-.08.19-.11.4-.11.63s.04.44.11.63c.08.19.18.36.32.5s.3.25.48.32c.19.07.39.11.61.11M161.17,251.81v-4.87h2.11c.44,0,.81.07,1.13.21.32.14.56.34.73.61.17.26.26.58.26.95s-.09.67-.26.94c-.17.26-.42.46-.73.6-.32.14-.69.21-1.13.21h-1.48l.5-.49v1.85h-1.13M164.27,251.81l-1.22-1.77h1.2l1.23,1.77h-1.22M162.3,250.08l-.5-.53h1.42c.35,0,.61-.08.78-.23.17-.15.26-.36.26-.62s-.09-.48-.26-.63c-.17-.15-.43-.22-.78-.22h-1.42l.5-.54v2.76M166.21,251.81v-4.87h1.13v4.87h-1.13M167.97,251.81l2.17-4.87h1.11l2.18,4.87h-1.18l-1.78-4.3h.45l-1.79,4.3h-1.16M169.06,250.77l.3-.86h2.5l.31.86h-3.11" vector-effect="none" fill="#fff"/>
  </g>
  <g id="Latores">
    <path id="Latores-2" data-name="Latores" d="M361.27,209.96l4.19,3.19-.17.94v1.2l-.18.75,1.43-.12.61.08.6.13.52-.03h.64s.57.04.57.04l.46.04.36.14.65.16,1.11.15.6.17.77.56.91.11,1.97-.2-.15-.97,1.04-.18,3.58-.42,3.45-.61,6.95-.38.91.32,1.4.7.92.58,1.23.91,1.05.87.61.74.34.38.86.74.74.86.88,1.19.57,1.49.23,1.65.12,1.57.02,1.84-.78.66-.71.68-.66.67-.94,1.02-1.12,1.45-.55.77-.5.83-.39.74-.79,1.69-.29.75-.39,1.38-.16.71-.16.81-.18,1.34-.23,4.46-.18,2.76-.07,1.74-.15,2.47-.1.78-.05.35-.24.81-.31.73-.36.71-.38.66-.46.41-.6.67-.9.72-.58.43-.64.4-2.18,1.16-2.23,1.24-1.46.85-.78.53-.79.62-.54.5-.47.5-.38.48-.28.42-.39.71h0l-.24,1.08-.34.04-3.13.1-1.09.03-3.51,2.57-6.46,3.53-.37,1.28-12.09,5.94-3.22,1.04-3.13-.02-8.08-.06-5.95-.04-4.86-.19-4.92.51-5.84,1.33-2.61-.06-6.77-.86-3.94-.69-1.22-.21-.57,1.16-.81,1.65-3.18,3.11-2.65-1.88-.69-.49-.5-.16-2.38-.78-2.21.03-.84.25.03-.98-.24-4.18,1.88-1.97,1.36-4.52,2.31-8.55,2.66-2.35,3.37-2.95,2.33-1.89,2.68-1.51-.19-3.34-3.68-2.8-.79-4.74-.31-1.52,1.33-4.68.61-3.09,3.19-2.83,4.84-4.34-1.37-4.36,3.11-1.13.83.13,3.08,1.01,3.16-1.22.6-.23.22-.23.19-.29.24.15h.22s.48-.12.48-.12l.4-.27.39-.06.59-.02.79.03.56.08.48.19.32.16.35.14.35-.32.45-.25.68-.23.6-.11.3-.64.45-.17.33-.16-.03-.23-.18-.42-.27-.42.07-.29.3-.22.66-.18,1.16-.19-.37-.87.14-.71,1.22-.78,6.57-4.23.68.13,2.12.43,1.08.03,1.19-.17,3.09-1.17,17.55-2" vector-effect="none" fill="#ce1d5e" fill-rule="evenodd" isolation="isolate"/>
  </g>
  <g id="Limanes">
    <path id="Limanes-2" data-name="Limanes" d="M614.1,149.38l7.82,11.84,1.24,1.85.23,1.06.86,3.94,1.15,2.26.44.87,1.8,3.56.2.4.36.7,1.38,2.68-.05,13.24,2.26.78,9,3.1,1.71.59-1.4,2.15-1.13,1.72.25,17.74,1.65.71,6.44,1.7.99.26-.23.97-.54,3.68-7.26-2.99-8.5-1.86-9.47-2.28-6.7-.1-4.85,7.8-1.87-1.35-5.32-1.68-1.91-5.23-11.73-.93-6.34-.91-2.35-4.47-.42-13.47-9.41-7.96-2.47-1.93-10.11-6.39.56-3.42-.54-2.04-.99-5.27-4.72-6.27-1.63-1.07-2.1-.78-2.43-.39.7-.96.68-.99,1.18-.87.95-1.44.58-2.71-.55-2.92,6.22.03,8.11,1,6.56-.88,3.87-.12,3.55-.24,2.49,2.66,6.14-.31,3.01-1.15,3.33-1.42,5.42-1.1,2.36-.31,3.6-.31,3.37-.16,2.2-.3,1.77-.48.29.09.34.06" vector-effect="none" fill="#d544b1" fill-rule="evenodd" isolation="isolate"/>
    <path d="M583.7,187.57v-4.87h1.13v3.95h2.44v.92h-3.57M588.02,187.57v-4.87h1.13v4.87h-1.13M590.41,187.57v-4.87h.93l2.07,3.44h-.49l2.04-3.44h.93v4.87s-1.04,0-1.04,0v-3.25s.19,0,.19,0l-1.63,2.73h-.51l-1.66-2.73h.24v3.25h-1.06M596.49,187.57l2.17-4.87h1.11l2.18,4.87h-1.18l-1.78-4.3h.45l-1.79,4.3h-1.16M597.58,186.53l.3-.86h2.5l.31.86h-3.11M602.41,187.57v-4.87h.93l2.87,3.51h-.45v-3.51h1.11v4.87h-.93l-2.88-3.51h.45v3.51h-1.11M608.97,184.66h2.34v.88h-2.34v-.88M609.05,186.67h2.65v.9h-3.77v-4.87h3.68v.9h-2.56v3.06M614.09,187.65c-.39,0-.76-.05-1.12-.16-.36-.1-.64-.24-.86-.41l.38-.85c.21.15.46.27.74.37.29.1.57.14.87.14.22,0,.4-.02.54-.07.14-.04.24-.11.3-.18.07-.08.1-.17.1-.27,0-.13-.05-.23-.15-.31-.1-.08-.24-.14-.4-.19-.17-.05-.35-.1-.55-.14-.2-.04-.4-.1-.61-.16-.2-.06-.39-.15-.55-.25-.17-.1-.3-.24-.41-.4-.1-.17-.16-.38-.16-.64,0-.28.08-.53.23-.76.15-.23.38-.41.68-.55.3-.14.69-.21,1.14-.21.31,0,.61.04.9.11s.56.18.79.32l-.35.86c-.23-.13-.45-.23-.68-.29s-.45-.09-.67-.09-.4.03-.54.08-.24.12-.3.2c-.06.08-.09.18-.09.28,0,.13.05.23.15.3.1.08.24.14.4.18s.35.09.55.14c.2.05.4.1.61.16.2.06.39.14.55.24.17.1.3.24.41.4.1.17.16.38.16.63,0,.27-.08.52-.23.75s-.38.41-.69.55c-.3.14-.69.21-1.15.21" vector-effect="none" fill="#fff"/>
    <path d="M327.99,251.11v-4.87h1.13v3.95h2.44v.92h-3.57M331.67,251.11l2.17-4.87h1.11l2.18,4.87h-1.18l-1.78-4.3h.45l-1.79,4.3h-1.16M332.75,250.06l.3-.86h2.5l.31.86h-3.11M338.35,251.11v-3.95h-1.56v-.92h4.24v.92h-1.56v3.95h-1.13M344.03,251.19c-.39,0-.74-.06-1.07-.19-.33-.13-.61-.3-.85-.53s-.42-.49-.56-.8-.2-.64-.2-1,.07-.7.2-1,.32-.57.56-.8.52-.4.85-.53c.32-.13.68-.19,1.06-.19s.74.06,1.06.19c.32.13.6.3.84.53.24.23.43.49.56.8s.2.64.2,1.01-.07.7-.2,1.01c-.13.31-.32.58-.56.8-.24.22-.52.4-.84.53-.32.13-.67.19-1.05.19M344.02,250.23c.22,0,.42-.04.6-.11.18-.07.34-.18.48-.32s.25-.3.32-.49c.08-.19.11-.4.11-.63s-.04-.44-.11-.63c-.08-.19-.18-.35-.32-.49-.14-.14-.3-.25-.48-.32-.19-.07-.39-.11-.61-.11s-.42.04-.6.11c-.18.07-.34.18-.48.32-.14.14-.25.3-.32.49-.08.19-.11.4-.11.63s.04.44.11.63c.08.19.18.36.32.5s.3.25.48.32c.19.07.39.11.61.11M347.42,251.11v-4.87h2.11c.44,0,.81.07,1.13.21.32.14.56.34.73.61.17.26.26.58.26.95s-.09.67-.26.94c-.17.26-.42.46-.73.6-.32.14-.69.21-1.13.21h-1.48l.5-.49v1.85h-1.13M350.52,251.11l-1.22-1.77h1.2l1.23,1.77h-1.22M348.55,249.38l-.5-.53h1.42c.35,0,.61-.08.78-.23.17-.15.26-.36.26-.62s-.09-.48-.26-.63c-.17-.15-.43-.22-.78-.22h-1.42l.5-.54v2.76M353.5,248.2h2.34v.88h-2.34v-.88M353.58,250.2h2.65v.9h-3.77v-4.87h3.68v.9h-2.56v3.06M358.62,251.19c-.39,0-.76-.05-1.12-.16-.36-.1-.64-.24-.86-.41l.38-.85c.21.15.46.27.74.37.29.1.57.14.87.14.22,0,.4-.02.54-.07.14-.04.24-.11.3-.18.07-.08.1-.17.1-.27,0-.13-.05-.23-.15-.31-.1-.08-.24-.14-.4-.19-.17-.05-.35-.1-.55-.14s-.4-.1-.61-.16c-.2-.06-.39-.15-.55-.25-.17-.1-.3-.24-.41-.4-.1-.17-.16-.38-.16-.64,0-.28.08-.53.23-.76.15-.23.38-.41.68-.55.3-.14.69-.21,1.14-.21.31,0,.61.04.9.11s.56.18.79.32l-.35.86c-.23-.13-.45-.23-.68-.29s-.45-.09-.67-.09-.4.03-.54.08-.24.12-.3.2c-.06.08-.09.18-.09.28,0,.13.05.23.15.3.1.08.24.14.4.18s.35.09.55.14c.2.05.4.1.61.16.2.06.39.14.55.24.17.1.3.24.41.4.1.17.16.38.16.63,0,.27-.08.52-.23.75s-.38.41-.69.55c-.3.14-.69.21-1.15.21" vector-effect="none" fill="#fff"/>
  </g>
  <g id="Agueria">
    <path id="Agueria-2" data-name="Agueria" d="M637.46,307.08l-17.78.56-13.66.85-17.78,2.52-24.09,5.06-8.98-16.4-1.48.49-2.22.65-2.4.55-1.45.3-2.47-.2-1.06-.06-1.31-.33-1.04-.3-1.09-.53-.93-.51-1.07-.45-.97-.36-.94-.31-1.23-.16-1.07.14,1.03-1.04,1.3-.85,2.93-.59,4.33-.54,3.31-.49,5.37-1.92-1.21-1.65-.74-1.22.41-1.1,1.54-3.51,1.19-2.7.14-.78,1.15-2.08,4.47-4.32,6.19-4.3,7.83-2.52,8.74-2.86,1.91,1.8,2.15,1.86,3.13,2.46,2.81-.64,3.44-.81,1.73-.56,2.27-.81,2.97-1.01,2.47-.99,2.48-.78,2.16-.83,2.56-.74,2.51-.84,3.23-.72,6.16-1.62,3.14.41,1.13.27,6.35,2-.48,3.76-2.77,16.78,5.68,21.94" vector-effect="none" fill="#e7e56d" fill-rule="evenodd" isolation="isolate"/>
    <path d="M577.08,292.27l2.17-4.87h1.11l2.18,4.87h-1.18l-1.78-4.3h.45l-1.79,4.3h-1.16M578.17,291.23l.3-.86h2.5l.31.86h-3.11M585.35,292.36c-.39,0-.74-.06-1.06-.18-.32-.12-.6-.3-.84-.53-.24-.23-.42-.49-.56-.8-.13-.31-.2-.64-.2-1.01s.07-.7.2-1.01c.13-.31.32-.57.56-.8s.52-.4.85-.53c.32-.12.68-.18,1.07-.18.43,0,.82.07,1.17.22s.64.35.87.63l-.72.67c-.18-.19-.37-.32-.58-.41-.21-.09-.44-.14-.68-.14s-.45.04-.65.11c-.19.07-.36.18-.5.32-.14.14-.25.3-.33.49-.08.19-.11.4-.11.63s.04.44.11.63c.08.19.19.36.33.5.14.14.31.25.5.32.19.07.4.11.64.11s.44-.04.65-.11c.21-.07.42-.19.62-.37l.64.81c-.26.2-.57.35-.92.46-.35.11-.7.16-1.05.16M586.29,291.59v-1.83h1.03v1.98l-1.03-.15M590.44,292.36c-.69,0-1.23-.19-1.62-.58-.39-.39-.58-.93-.58-1.65v-2.73h1.13v2.69c0,.46.1.8.29,1,.19.2.46.31.8.31s.61-.1.8-.31c.19-.2.29-.54.29-1v-2.69h1.11v2.73c0,.71-.19,1.26-.58,1.65-.39.39-.93.58-1.62.58M591.15,286.97c-.13,0-.25-.04-.34-.13s-.14-.2-.14-.35.05-.26.14-.35.21-.13.34-.13.25.04.34.13.14.2.14.35-.05.26-.14.35-.21.13-.34.13M589.75,286.97c-.13,0-.25-.04-.34-.13s-.14-.2-.14-.35.05-.26.14-.35.21-.13.34-.13.25.04.34.13.14.2.14.35-.05.26-.14.35-.21.13-.34.13M594.84,289.36h2.34v.88h-2.34v-.88M594.92,291.37h2.65v.9h-3.77v-4.87h3.68v.9h-2.56v3.06M598.36,292.27v-4.87h2.11c.44,0,.81.07,1.13.21.32.14.56.34.73.61.17.26.26.58.26.95s-.09.67-.26.94c-.17.26-.42.46-.73.6-.32.14-.69.21-1.13.21h-1.48l.5-.49v1.85h-1.13M601.45,292.27l-1.22-1.77h1.2l1.23,1.77h-1.22M599.48,290.55l-.5-.53h1.42c.35,0,.61-.08.78-.23.17-.15.26-.36.26-.62s-.09-.48-.26-.63c-.17-.15-.43-.22-.78-.22h-1.42l.5-.54v2.76M603.4,292.27v-4.87h1.13v4.87h-1.13M605.16,292.27l2.17-4.87h1.11l2.18,4.87h-1.18l-1.78-4.3h.45l-1.79,4.3h-1.16M606.24,291.23l.3-.86h2.5l.31.86h-3.11" vector-effect="none" fill="#fff"/>
  </g>
  <g id="Manzaneda">
    <path id="Manzaneda-2" data-name="Manzaneda" d="M550.76,290.28l.74,1.22,1.21,1.65-5.37,1.92-3.31.49-4.33.54-2.93.59-1.3.85-1.03,1.04-1,.55-1.27.78-4.11,3.82-1.66,1.46-.91,1.56-2.19,3.4-1.8,3.03-1.24,1.51-.09.73-.21,1.22-.25,1.6-.05.91.2,1.23.33,1.54-.82,1.49-2.01,1.71-1.78.72-2.5.45-1.97-.49-2.74-.85-2.02-.79-1.27-.28-1.75-.67-2.51-.75-3.19-1.37-1.3-.42-1.22-.22-1.12.28-.74.58-.67.79-.46.36-11.12-5.1-1.14-.41-.46-.26.84-.62.3-.78-.84-1.66-.42-.47-1.2-1.36-.2-.22.12-.34,3.3-4.15,13.3-16.74.58.3,2.02,1.01,5.88-4.35,8.76-1.21,6.33-4.38,4.4-3,6.2-3.34,1.23-2.21,2.25-4.55,2.35-2.09.97-1.83,8.68,2.34,5.9,1.82,5.18,1.58,4.29,5.34-4.47,4.32-1.15,2.08-.14.78-1.19,2.7-1.54,3.51-.41,1.1" vector-effect="none" fill="#3e91e3" fill-rule="evenodd" isolation="isolate"/>
    <path d="M495.44,297.5v-4.87h.93l2.07,3.44h-.49l2.04-3.44h.93v4.87s-1.04,0-1.04,0v-3.25s.19,0,.19,0l-1.63,2.73h-.51l-1.66-2.73h.24v3.25h-1.06M501.52,297.5l2.17-4.87h1.11l2.18,4.87h-1.18l-1.78-4.3h.45l-1.79,4.3h-1.16M502.61,296.46l.3-.86h2.5l.31.86h-3.11M507.44,297.5v-4.87h.93l2.87,3.51h-.45v-3.51h1.11v4.87h-.93l-2.88-3.51h.45v3.51h-1.11M512.65,297.5v-.73l3.01-3.63.14.41h-3.1v-.92h4.1v.73l-3.01,3.63-.14-.41h3.25v.92h-4.26M516.88,297.5l2.17-4.87h1.11l2.18,4.87h-1.18l-1.78-4.3h.45l-1.79,4.3h-1.16M517.96,296.46l.3-.86h2.5l.31.86h-3.11M522.8,297.5v-4.87h.93l2.87,3.51h-.45v-3.51h1.11v4.87h-.93l-2.88-3.51h.45v3.51h-1.11M529.35,294.59h2.34v.88h-2.34v-.88M529.44,296.6h2.65v.9h-3.77v-4.87h3.68v.9h-2.56v3.06M532.87,297.5v-4.87h2.21c.53,0,1,.1,1.4.3.4.2.72.48.95.85.23.36.34.79.34,1.29s-.11.92-.34,1.28c-.23.36-.54.65-.95.85-.4.2-.87.3-1.4.3h-2.21M534,296.58h1.03c.32,0,.61-.06.85-.18.24-.12.42-.3.56-.53.13-.23.2-.49.2-.8s-.07-.58-.2-.8c-.13-.22-.32-.4-.56-.52-.24-.12-.52-.18-.85-.18h-1.03v3.02M537.99,297.5l2.17-4.87h1.11l2.18,4.87h-1.18l-1.78-4.3h.45l-1.79,4.3h-1.16M539.08,296.46l.3-.86h2.5l.31.86h-3.11" vector-effect="none" fill="#fff"/>
  </g>
  <g id="Santianes">
    <path id="Santianes-2" data-name="Santianes" d="M564.15,316.07l-14.01,3.62-3.08.98-10.15,2.75-9.61,1.66-7.93-1.66.82-1.49-.33-1.54-.2-1.23.05-.91.25-1.6.21-1.22.09-.73,1.24-1.51,1.8-3.03,2.19-3.4.91-1.56,1.66-1.46,4.11-3.82,1.27-.78,1-.55,1.07-.14,1.23.16.94.31.97.36,1.07.45.93.51,1.09.53,1.04.3,1.31.33,1.06.06,2.47.2,1.45-.3,2.4-.55,2.22-.65,1.48-.49,8.98,16.4" vector-effect="none" fill="#72d3b9" fill-rule="evenodd" isolation="isolate"/>
    <path d="M523.87,312.73c-.39,0-.76-.05-1.12-.16-.36-.1-.64-.24-.86-.41l.38-.85c.21.15.46.27.74.37s.57.14.87.14c.22,0,.4-.02.54-.07s.24-.11.3-.18c.06-.08.1-.17.1-.27,0-.13-.05-.23-.15-.31-.1-.08-.24-.14-.4-.19-.17-.05-.35-.1-.55-.14-.2-.04-.4-.1-.61-.16s-.39-.15-.55-.25c-.17-.1-.3-.24-.41-.4-.1-.17-.16-.38-.16-.64,0-.28.08-.53.23-.76.15-.23.38-.41.68-.55.3-.14.69-.21,1.14-.21.31,0,.61.04.9.11s.56.18.79.32l-.35.86c-.23-.13-.45-.23-.68-.29s-.45-.09-.67-.09-.4.03-.54.08c-.14.05-.24.12-.3.2-.06.08-.09.18-.09.28,0,.13.05.23.15.3.1.08.24.14.4.18.17.05.35.09.55.14.2.05.4.1.61.16.2.06.39.14.55.24.17.1.3.24.41.4.1.17.16.38.16.63,0,.27-.08.52-.23.75s-.38.41-.69.55c-.3.14-.69.21-1.15.21M526.19,312.65l2.17-4.87h1.11l2.18,4.87h-1.18l-1.78-4.3h.45l-1.79,4.3h-1.16M527.28,311.61l.3-.86h2.5l.31.86h-3.11M532.11,312.65v-4.87h.93l2.87,3.51h-.45v-3.51h1.11v4.87h-.93l-2.88-3.51h.45v3.51h-1.11M538.64,312.65v-3.95h-1.56v-.92h4.24v.92h-1.56v3.95h-1.13M541.95,312.65v-4.87h1.13v4.87h-1.13M543.71,312.65l2.17-4.87h1.11l2.18,4.87h-1.18l-1.78-4.3h.45l-1.79,4.3h-1.16M544.79,311.61l.3-.86h2.5l.31.86h-3.11M549.62,312.65v-4.87h.93l2.87,3.51h-.45v-3.51h1.11v4.87h-.93l-2.88-3.51h.45v3.51h-1.11M556.18,309.74h2.34v.88h-2.34v-.88M556.26,311.75h2.65v.9h-3.77v-4.87h3.68v.9h-2.56v3.06M561.3,312.73c-.39,0-.76-.05-1.12-.16-.36-.1-.64-.24-.86-.41l.38-.85c.21.15.46.27.74.37.29.1.57.14.87.14.22,0,.4-.02.54-.07.14-.04.24-.11.3-.18.07-.08.1-.17.1-.27,0-.13-.05-.23-.15-.31-.1-.08-.24-.14-.4-.19-.17-.05-.35-.1-.55-.14s-.4-.1-.61-.16c-.2-.06-.39-.15-.55-.25-.17-.1-.3-.24-.41-.4s-.16-.38-.16-.64c0-.28.08-.53.23-.76.15-.23.38-.41.68-.55.3-.14.69-.21,1.14-.21.31,0,.61.04.9.11s.56.18.79.32l-.35.86c-.23-.13-.45-.23-.68-.29s-.45-.09-.67-.09-.4.03-.54.08-.24.12-.3.2c-.06.08-.09.18-.09.28,0,.13.05.23.15.3.1.08.24.14.4.18s.35.09.55.14c.2.05.4.1.61.16.2.06.39.14.55.24.17.1.3.24.41.4.1.17.16.38.16.63,0,.27-.08.52-.23.75s-.38.41-.69.55c-.3.14-.69.21-1.15.21" vector-effect="none" fill="#fff"/>
  </g>
  <g id="Priorio">
    <path id="Priorio-2" data-name="Priorio" d="M260.86,224.6l.61.46.42-.09.21.17.26.3.33.41,7.24-1.67,8.31,2.13,1.74.48,6.93.41,1.85-.15,2.63-.47-.31-.62,1.02-.02,1.22-.07.52-.15,2.86.19,2,.09,5.84.05,2.57-1.25,1.37,4.36-4.84,4.34-3.19,2.83-.61,3.09-1.33,4.68.31,1.52.79,4.74,3.68,2.8.19,3.34-2.68,1.51-2.33,1.89-3.37,2.95-2.66,2.35-2.31,8.55-1.36,4.52-1.88,1.97.24,4.18-.03.98-1.08.33-5.09,3.26-3.06,2.27-1.74.77-2.56.5-.25.05-8.22,1.2-3.47-4.29-1.47.9-1.04,1.29-1.4-.71-1.22-3.18-.31-2.19-.17-2.84-.27-2.01-.09-1.94-.2-2.03-.03-.99-.2-.66-.25-.3-.55-.49-.52-.18-1.02-.29-.83-.24h-.51s-.57.2-.57.2l-.6.29-3.07,2.75-1.13.96-1.04,1.1-.68.66-.63.74-.6.7-.95.8-.74.61-.83.72-.69.47-1.27.54-1.34.51-.68.32-.77.25-.78-.06-.45-.18-.27-.27-.3-.28-.43-.48-.43-.71-.42-.95.84-.95.87-.77.81-.8.62-.54.58-.71.31-.89.11-.87-.09-1.14v-1.7s-.05-1.78-.05-1.78l-.02-.69-.44-2.18-.43-1.38-1.08-1.86-.47-.95-.66-.7-1.11-.76-1.87-1.11-.58-.42-1.51-1.3-.5-.55-.2-.51v-.54s.1-.39.1-.39l.54-.49.72-.75.94-1.69,1.41-2.3.32-.66.18-1.38-.15-.32-.17-.97-1.47-5.07,3.23-8.54,1.34-6.75,2.35-2.07,12.78-.65,9.38-3.27.18.23.31.05.44.14.4.25" vector-effect="none" fill="#718dcd" fill-rule="evenodd" isolation="isolate"/>
    <path d="M254.15,262.43v-4.87h2.11c.44,0,.81.07,1.13.21.32.14.56.34.73.61.17.26.26.58.26.95s-.09.67-.26.94-.42.47-.73.61c-.32.14-.69.21-1.13.21h-1.48l.5-.51v1.85h-1.13M255.27,260.7l-.5-.54h1.42c.35,0,.61-.07.78-.22.17-.15.26-.35.26-.62s-.09-.48-.26-.63c-.17-.15-.43-.22-.78-.22h-1.42l.5-.54v2.76M259.18,262.43v-4.87h2.11c.44,0,.81.07,1.13.21.32.14.56.34.73.61.17.26.26.58.26.95s-.09.67-.26.94c-.17.26-.42.46-.73.6-.32.14-.69.21-1.13.21h-1.48l.5-.49v1.85h-1.13M262.28,262.43l-1.22-1.77h1.2l1.23,1.77h-1.22M260.31,260.7l-.5-.53h1.42c.35,0,.61-.08.78-.23.17-.15.26-.36.26-.62s-.09-.48-.26-.63c-.17-.15-.43-.22-.78-.22h-1.42l.5-.54v2.76M264.22,262.43v-4.87h1.13v4.87h-1.13M268.99,262.51c-.39,0-.74-.06-1.07-.19-.33-.13-.61-.3-.85-.53s-.42-.49-.56-.8-.2-.64-.2-1,.07-.7.2-1,.32-.57.56-.8.52-.4.85-.53c.32-.13.68-.19,1.06-.19s.74.06,1.06.19c.32.13.6.3.84.53.24.23.43.49.56.8s.2.64.2,1.01-.07.7-.2,1.01c-.13.31-.32.58-.56.8-.24.22-.52.4-.84.53-.32.13-.67.19-1.05.19M268.98,261.55c.22,0,.42-.04.6-.11.18-.07.34-.18.48-.32s.25-.3.32-.49c.08-.19.11-.4.11-.63s-.04-.44-.11-.63c-.08-.19-.18-.35-.32-.49-.14-.14-.3-.25-.48-.32-.19-.07-.39-.11-.61-.11s-.42.04-.6.11c-.18.07-.34.18-.48.32-.14.14-.25.3-.32.49-.08.19-.11.4-.11.63s.04.44.11.63c.08.19.18.36.32.5.14.14.3.25.48.32s.39.11.61.11M272.38,262.43v-4.87h2.11c.44,0,.81.07,1.13.21.32.14.56.34.73.61.17.26.26.58.26.95s-.09.67-.26.94c-.17.26-.42.46-.73.6-.32.14-.69.21-1.13.21h-1.48l.5-.49v1.85h-1.13M275.48,262.43l-1.22-1.77h1.2l1.23,1.77h-1.22M273.51,260.7l-.5-.53h1.42c.35,0,.61-.08.78-.23.17-.15.26-.36.26-.62s-.09-.48-.26-.63c-.17-.15-.43-.22-.78-.22h-1.42l.5-.54v2.76M277.42,262.43v-4.87h1.13v4.87h-1.13M282.18,262.51c-.39,0-.74-.06-1.07-.19-.33-.13-.61-.3-.85-.53-.24-.23-.42-.49-.56-.8s-.2-.64-.2-1,.07-.7.2-1,.32-.57.56-.8.52-.4.85-.53c.32-.13.68-.19,1.06-.19s.74.06,1.06.19c.32.13.6.3.84.53.24.23.43.49.56.8s.2.64.2,1.01-.07.7-.2,1.01c-.13.31-.32.58-.56.8-.24.22-.52.4-.84.53-.32.13-.67.19-1.05.19M282.18,261.55c.22,0,.42-.04.6-.11.18-.07.34-.18.48-.32s.25-.3.32-.49c.08-.19.11-.4.11-.63s-.04-.44-.11-.63c-.08-.19-.18-.35-.32-.49-.14-.14-.3-.25-.48-.32-.19-.07-.39-.11-.61-.11s-.42.04-.6.11c-.18.07-.34.18-.48.32-.14.14-.25.3-.32.49-.08.19-.11.4-.11.63s.04.44.11.63c.08.19.18.36.32.5.14.14.3.25.48.32.19.07.39.11.61.11" vector-effect="none" fill="#fff"/>
  </g>
  <g id="Oviedo">
    <polygon id="Oviedo-2" data-name="Oviedo" points="547.08 142.65 545.36 138.64 541.36 135.79 537.17 131.98 535.59 127.71 534.04 119.22 535.59 112.2 543.23 103.72 543.12 103.72 537.25 101.04 536.27 100.59 535.23 100.11 534.42 99.69 531.07 97.99 531.04 96.6 531.06 96.55 531.54 95.15 531.68 94.75 532.97 93.4 533.9 92.42 534.64 91.64 534.53 91.36 534.52 91.35 534.22 90.45 532.91 90.05 530.27 90.39 528.36 90.64 526.97 90.82 526.02 90.15 525.65 89.39 526.32 87.39 526.62 85.24 525.97 82.06 525.27 79.81 524.38 78.39 524.24 78.13 524.2 78.03 523.42 76.15 523.14 74.35 523.51 72.37 524.3 70.97 524.5 69.99 524.6 69.52 524.44 68.81 524.39 68.59 523.78 67.57 523.39 67.47 522.91 67.35 521.9 67.61 521.64 68.37 521.83 69.61 521.41 70.49 521.1 70.56 520.62 70.67 520.56 70.68 520.53 70.67 519.03 69.8 516.57 66.8 515.55 67.1 511.04 67.57 508.18 70.7 507.95 71.52 502.14 72.56 486.1 75.35 486.7 76.5 486.53 77.85 486.34 79.07 485.74 79.31 485.12 79.92 484.84 80.5 484.01 81.04 483.18 81.34 482.45 87.67 481.84 93.55 476.04 98.29 474.76 99.37 473.65 100.34 472.96 100.88 472.31 101.49 471.95 101.83 471.52 102.16 471.05 102.35 470.37 102.41 469.58 102.18 468.93 102.08 467.84 102.23 467.03 102.45 466.43 102.76 465.65 102.85 464.62 102.68 463.92 102.64 460.79 104.96 458.99 105.78 453.23 106.65 454.26 108.89 454.98 110.73 455.94 113.13 454.43 117.14 454.13 119.78 455.46 122.03 454.51 122.2 451.26 123.41 436.18 127.65 432.73 129.54 432.83 132.68 432.64 132.51 432.12 132.13 431.18 131.5 430.31 131.52 429.58 131.73 426.74 132.8 425.32 133.39 424.6 133.68 423.71 133.54 422.62 133.42 421.94 133.26 420.76 133.07 419.74 132.93 419.05 132.44 418.12 132.58 417.26 132.81 416.74 133.02 416.06 133.54 415.38 133.82 414.68 134.07 413.49 134.1 412.42 133.98 412.56 135.83 410.84 135.98 407.5 135.94 407.76 138.67 407.67 138.77 404.23 139.31 403.45 140.17 404.23 140.93 405.19 141.64 407.12 142 407.9 141.64 407.9 141.16 408.14 140.65 412.14 142.36 412.97 142.68 413.27 143.99 413.1 144.14 412.45 144.5 412.73 144.79 412.28 144.96 413.76 146.77 418.14 148.79 418.22 149.13 418.03 149.53 417.3 149.89 414.76 151.47 413.98 151.98 413.53 152.34 413.16 152.72 412.9 152.96 411.23 153.4 408.18 153.67 406.12 153.41 405.99 152.82 405.72 152.15 406.17 150.72 403.84 149.02 399.48 148.01 395.76 147.71 396 149 393.5 149.12 390.62 148.91 387.78 147.59 388.49 149.67 387.44 150.56 384.81 151.1 381.53 150.65 380.83 153.42 378.46 153.44 376.37 152.93 370.3 152.1 367.21 151.7 364.36 151.97 363.33 152.1 362.41 152.38 361.66 152.72 360.88 153.03 360.17 153.07 360.17 153.06 358.34 152.45 359.14 150.49 361.89 148.67 361.98 146.33 359.24 145.6 356.83 145.94 352.77 148.18 352.03 150.35 352.2 151.11 353.03 153.72 354.21 157.24 353.19 157.78 350.25 158.7 341.89 160.38 332.79 164.43 332.96 165.52 332.81 167.47 332.55 168.64 332.26 170.43 331.95 173.18 331.63 174.93 331.5 176.46 331.63 177.26 332.14 178.06 332.89 178.9 333.36 179.52 333.69 180.24 334.42 180.7 335.08 181.17 335.99 180.99 338.61 180.43 340.77 179.7 341.99 180.51 342.95 180.74 345.57 181.01 346.61 182.33 346.37 183.99 344.4 186.92 340.53 190.32 335.88 194.06 334.47 195.67 333.18 199.28 332.89 200.61 332.79 202.5 333.56 203.88 334.32 204.32 335.72 204.57 336.7 204.93 337.57 205.09 338.16 205.31 337.96 206.45 337.66 206.86 337.41 207.8 336.87 208.74 336.91 209.26 337.21 210.06 336.69 211.37 336.24 212.83 338.35 213.26 339.43 213.29 340.62 213.12 343.71 211.95 361.27 209.96 365.46 213.15 365.29 214.09 365.29 215.29 365.11 216.04 366.54 215.92 367.14 216 367.75 216.13 368.27 216.1 368.91 216.09 369.48 216.14 369.94 216.18 370.3 216.33 370.95 216.49 372.06 216.64 372.67 216.82 373.43 217.38 374.35 217.48 376.32 217.28 376.17 216.31 377.21 216.13 380.79 215.71 384.24 215.1 391.18 214.72 392.1 215.03 393.5 215.73 394.42 216.31 395.65 217.22 396.69 218.09 397.3 218.83 397.64 219.22 398.51 219.96 399.24 220.81 400.13 222.01 400.69 223.5 400.93 225.15 401.05 226.72 401.07 228.56 402.03 228.62 403.16 228.52 404.36 228.31 405.92 227.72 407.17 226.8 407.9 225.9 408.87 224.52 408.98 222.58 412.01 220.31 413.15 219.46 417.02 216.6 418.72 215.26 423.18 211.76 423.79 211.67 424.97 211.54 425.95 211.44 427.22 211.4 428.67 211.38 428.93 211.39 429.87 211.4 431 211.5 431.42 211.57 432.65 211.87 434.5 212.27 436.32 212.38 438.4 212.43 439.2 212.38 440.61 212.25 441.59 212.1 442.92 211.86 444.51 211.42 446.3 210.83 448.35 210.21 449.64 209.88 450.77 209.75 451.62 209.6 452.94 209.49 454.37 209.45 455.86 209.52 457.32 209.69 458.51 209.89 458.49 211.31 458.37 212.49 458.33 213.58 458.81 213.98 458.47 214.36 457.74 214.5 458.3 215.67 459.06 216.09 459.24 216.51 459.65 216.97 459.82 217.14 458.77 217.82 459.44 218.4 461.35 218.16 462.55 217.29 461.62 213.59 461.76 211.82 462.07 210.54 463.65 210.8 465.56 210.89 470.67 212.82 473.86 212.52 475.88 212.34 477.5 212.18 480.29 214.27 483.55 213.71 483.54 209.98 480.82 210.06 480.14 209.71 479.61 209.34 479.65 208.93 480.29 208.52 480.77 208.27 481.38 205.95 480.57 205.08 481.58 204.62 482.45 204.24 483.43 203.91 484.12 203.76 485.68 203.42 487.37 203.15 489.87 202.82 490.58 202.7 491.65 202.52 492.96 202.25 493.89 201.98 494.67 201.73 495.42 201.45 496.36 201.06 497.61 200.45 498.17 200.12 498.79 199.73 499.38 199.32 499.84 198.96 500.75 198.16 501.18 197.74 501.75 197.12 502.08 196.71 502.48 196.16 496.36 194.73 496.82 192.53 497.64 187.44 504.05 187.04 505.68 183.68 507.27 184.16 507.86 183.5 508.32 183.05 509.37 182.12 510.12 181.54 510.74 181.11 513.13 182.1 518 186.77 522.45 189.37 540.44 191.22 545.55 188.24 542.19 184.09 551.43 178.07 559.84 175.98 558.84 170.71 554.13 164.44 552.49 163.37 550.39 162.59 547.96 162.2 548.66 161.24 549.34 160.25 550.52 159.39 551.47 157.94 552.04 155.24 551.49 152.32 549.47 147.71 547.08 142.65" fill="#00326c" isolation="isolate"/>
    <path d="M446.57,168.88c-.39,0-.74-.06-1.07-.19-.33-.13-.61-.3-.85-.53-.24-.23-.42-.49-.56-.8-.13-.31-.2-.64-.2-1s.07-.7.2-1c.13-.31.32-.57.56-.8.24-.23.52-.4.85-.53.32-.13.68-.19,1.06-.19s.74.06,1.06.19c.32.13.6.3.84.53.24.23.43.49.56.8s.2.64.2,1.01-.07.7-.2,1.01c-.13.31-.32.58-.56.8-.24.22-.52.4-.84.53-.32.13-.67.19-1.05.19M446.56,167.92c.22,0,.42-.04.6-.11.18-.07.34-.18.48-.32s.25-.3.32-.49c.08-.19.11-.4.11-.63s-.04-.44-.11-.63c-.08-.19-.18-.35-.32-.49-.14-.14-.3-.25-.48-.32-.19-.07-.39-.11-.61-.11s-.42.04-.6.11c-.18.07-.34.18-.48.32-.14.14-.25.3-.32.49-.08.19-.11.4-.11.63s.04.44.11.63c.08.19.18.36.32.5.14.14.3.25.48.32.19.07.39.11.61.11M451.43,168.79l-2.1-4.87h1.22l1.84,4.31h-.72l1.86-4.31h1.12l-2.11,4.87h-1.11M455,168.79v-4.87h1.13v4.87h-1.13M458.44,165.89h2.34v.88h-2.34v-.88M458.52,167.89h2.65v.9h-3.77v-4.87h3.68v.9h-2.56v3.06M461.96,168.79v-4.87h2.21c.53,0,1,.1,1.4.3s.72.48.95.85c.23.36.34.79.34,1.29s-.11.92-.34,1.28c-.23.36-.54.65-.95.85-.4.2-.87.3-1.4.3h-2.21M463.09,167.87h1.03c.32,0,.61-.06.85-.18.24-.12.42-.3.56-.53.13-.23.2-.49.2-.8s-.07-.58-.2-.8c-.13-.22-.32-.4-.56-.52-.24-.12-.52-.18-.85-.18h-1.03v3.02M470.09,168.88c-.39,0-.74-.06-1.07-.19-.33-.13-.61-.3-.85-.53-.24-.23-.42-.49-.56-.8-.13-.31-.2-.64-.2-1s.07-.7.2-1c.13-.31.32-.57.56-.8s.52-.4.85-.53c.32-.13.68-.19,1.06-.19s.74.06,1.06.19c.32.13.6.3.84.53.24.23.43.49.56.8.13.3.2.64.2,1.01s-.07.7-.2,1.01c-.13.31-.32.58-.56.8-.24.22-.52.4-.84.53-.32.13-.67.19-1.05.19M470.08,167.92c.22,0,.42-.04.6-.11.18-.07.34-.18.48-.32s.25-.3.32-.49c.08-.19.11-.4.11-.63s-.04-.44-.11-.63c-.08-.19-.18-.35-.32-.49-.14-.14-.3-.25-.48-.32-.19-.07-.39-.11-.61-.11s-.42.04-.6.11c-.18.07-.34.18-.48.32-.14.14-.25.3-.32.49-.08.19-.11.4-.11.63s.04.44.11.63c.08.19.18.36.32.5.14.14.3.25.48.32.19.07.39.11.61.11" vector-effect="none" fill="#fff"/>
  </g>
  <g id="Pando">
    <path id="Pando-2" data-name="Pando" d="M584.58,215.66l-6.1.87-9.49-.74-1.17-.35-.93-.27-.89.02-.39.31-.19.38-10.76.89-1.11-1.99-1.44-3.47-3.34-7.43-8.32-12.65,5.11-2.98-3.36-4.14,9.24-6.02,8.41-2.09.54,2.04-.56,3.42,10.11,6.39,2.47,1.93,9.41,7.96.42,13.47,2.35,4.47" vector-effect="none" fill="#cee665" fill-rule="evenodd" isolation="isolate"/>
    <path d="M549.26,201.68v-4.87h2.11c.44,0,.81.07,1.13.21.32.14.56.34.73.61.17.26.26.58.26.95s-.09.67-.26.94-.42.47-.73.61c-.32.14-.69.21-1.13.21h-1.48l.5-.51v1.85h-1.13M550.39,199.96l-.5-.54h1.42c.35,0,.61-.07.78-.22.17-.15.26-.35.26-.62s-.09-.48-.26-.63c-.17-.15-.43-.22-.78-.22h-1.42l.5-.54v2.76M553.42,201.68l2.17-4.87h1.11l2.18,4.87h-1.18l-1.78-4.3h.45l-1.79,4.3h-1.16M554.5,200.64l.3-.86h2.5l.31.86h-3.11M559.34,201.68v-4.87h.93l2.87,3.51h-.45v-3.51h1.11v4.87h-.93l-2.88-3.51h.45v3.51h-1.11M564.85,201.68v-4.87h2.21c.53,0,1,.1,1.4.3s.72.48.95.85c.23.36.34.79.34,1.29s-.11.92-.34,1.28c-.23.36-.54.65-.95.85-.4.2-.87.3-1.4.3h-2.21M565.98,200.76h1.03c.32,0,.61-.06.85-.18.24-.12.42-.3.56-.53.13-.23.2-.49.2-.8s-.07-.58-.2-.8c-.13-.22-.32-.4-.56-.52-.24-.12-.52-.18-.85-.18h-1.03v3.02M572.98,201.76c-.39,0-.74-.06-1.07-.19-.33-.13-.61-.3-.85-.53-.24-.23-.42-.49-.56-.8-.13-.31-.2-.64-.2-1s.07-.7.2-1c.13-.31.32-.57.56-.8s.52-.4.85-.53c.32-.13.68-.19,1.06-.19s.74.06,1.06.19c.32.13.6.3.84.53.24.23.43.49.56.8.13.3.2.64.2,1.01s-.07.7-.2,1.01c-.13.31-.32.58-.56.8-.24.22-.52.4-.84.53-.32.13-.67.19-1.05.19M572.97,200.8c.22,0,.42-.04.6-.11.18-.07.34-.18.48-.32s.25-.3.32-.49c.08-.19.11-.4.11-.63s-.04-.44-.11-.63c-.08-.19-.18-.35-.32-.49-.14-.14-.3-.25-.48-.32-.19-.07-.39-.11-.61-.11s-.42.04-.6.11c-.18.07-.34.18-.48.32-.14.14-.25.3-.32.49-.08.19-.11.4-.11.63s.04.44.11.63c.08.19.18.36.32.5s.3.25.48.32c.19.07.39.11.61.11" vector-effect="none" fill="#fff"/>
  </g>
  <g id="Naves">
    <path id="Naves-2" data-name="Naves" d="M648.53,225.18l-4.36,5.32-3.2,3.7-4.59,4.17-5.53,4.52-3.53,2.93-.9,3.6,3.23,2.12.82.37.56.67.77,1.25.2.43.98.73.94.62.83,1.31.33.39-.83.55-1.13.46-1.68.48-3.67.41-3.34,2.67-6.16,1.62-3.23.72-2.51.84-2.56.74-2.16.83-2.48.78-2.47.99-2.97,1.01-2.27.81-1.73.56-3.44.81-2.81.64-3.13-2.46-2.15-1.86-1.91-1.8-1.09-1.32-.89-.78-.82-.76-.98-1.17-.36-.97-.31-1.34-.39-.77-.57-.87-.54-.95-.22-.98-.33-1.1-.24-.64-.52-1.28-.25-.75-.12-1.08.1-.99.46-.76,1.85-1.47,1.28-.78,1.17-.78,1.5-1.23,1.13-.94.6-.87.37-.5.51-.45,1.32-1.4,1.13-.96.64-.69.73-.63,1.51-3.51.18-1.59-1.56-4.7.45-2.5,2.78-10.05,11.73.93,1.91,5.23,5.32,1.68,1.87,1.35,4.85-7.8,6.7.1,9.47,2.28,8.5,1.86,7.26,2.99" vector-effect="none" fill="#63d574" fill-rule="evenodd" isolation="isolate"/>
    <path d="M596.39,245.9v-4.87h.93l2.87,3.51h-.45v-3.51h1.11v4.87h-.93l-2.88-3.51h.45v3.51h-1.11M601.27,245.9l2.17-4.87h1.11l2.18,4.87h-1.18l-1.78-4.3h.45l-1.79,4.3h-1.16M602.36,244.86l.3-.86h2.5l.31.86h-3.11M608.41,245.9l-2.1-4.87h1.22l1.84,4.31h-.72l1.86-4.31h1.12l-2.11,4.87h-1.11M613.03,242.99h2.34v.88h-2.34v-.88M613.11,245h2.65v.9h-3.77v-4.87h3.68v.9h-2.56v3.06M618.15,245.99c-.39,0-.76-.05-1.12-.16-.36-.1-.64-.24-.86-.41l.38-.85c.21.15.46.27.74.37.29.1.57.14.87.14.22,0,.4-.02.54-.07s.24-.11.3-.18.1-.17.1-.27c0-.13-.05-.23-.15-.31-.1-.08-.24-.14-.4-.19-.17-.05-.35-.1-.55-.14s-.4-.1-.61-.16c-.2-.06-.39-.15-.55-.25-.17-.1-.3-.24-.41-.4s-.16-.38-.16-.64c0-.28.08-.53.23-.76.15-.23.38-.41.68-.55.3-.14.69-.21,1.14-.21.31,0,.61.04.9.11s.56.18.79.32l-.35.86c-.23-.13-.45-.23-.68-.29-.23-.06-.45-.09-.67-.09s-.4.03-.54.08-.24.12-.3.2c-.06.08-.09.18-.09.28,0,.13.05.23.15.3s.24.14.4.18.35.09.55.14c.2.05.4.1.61.16.2.06.39.14.55.24.17.1.3.24.41.4.1.17.16.38.16.63,0,.27-.08.52-.23.75s-.38.41-.69.55c-.3.14-.69.21-1.15.21" vector-effect="none" fill="#fff"/>
  </g>
  <g id="Nora">
    <path id="Nora-2" data-name="Nora" d="M127.37,125.38l-.34,1.21v.96s.28.62.28.62l1.23.93.21.06,1.63.47,1.79.15,1.66-.13,1.4-.11,1.51-.21.75-.2,1.48-.39,2.13-.56.17-.12,1.08-.78,1-1.11,1.4-2.49,1.2-1.02h.05s1.16-.15,1.16-.15l1.16.19.79.65.27.79-.81,1.75-2.09,3.83-.13,1.35.46,1.24.71,1.09,4.87,5.15,1.23,2.11-.36,1.48-.95,1.49-.97,1.11-2.76,2.59-1.8,1.68-1.56,1.47-2.13,2.39-1.01,2.34.18,1.06.29.5.96.65,1.37.3,1.38-.11.77-.36,1.42-.66,1.56-.47.55-.1,2.33-.41.43-.06,1.83-.34,3.96-1.33.68-.36.92-1.4v-.94s-1.5-3.5-1.5-3.5l.38-1.65,1.11-1.52.83-.67,3.05-1.69.77-.11.83-.12,2.59.25,1.86,1.01.95,1.3,1.33,2.86,1.13,1.46.69.61,1.52.66,1.17.26.95-.18-.34.7-.36.55-.34.27-.66.12-.79-.11-.99.05-.7.22-.93.41-.32.45-.21.64.18.73.68.82.63.48.87.63.79.76.84.86.36.76-.28.57-.31.64-.05.7.21.65-.25.72v.45s.44.45.44.45l.35.27.24.71-.12,1.88.41.17.57.23.21.32.11.48.28.54.39.14,1.67.24,5.52.81,1.27-.7.98.1.86.11.51.12.17.41-1.36,2.47-.48.53-.49.25-1.34.34.45,3.89-6.44,5.64-15.11,1.81-9.74,2.29-4.77-.22.45-1.85.49-2.16v-1.25s-.06-1.08-.06-1.08l-.42-.95-.31-.45-.65-.74-.54-.58-.53-.34-1.06-.78-.72-.47-1.09-.74-.77-.67-.49-.61-.28-.81-.24-1.37-.29-1.37-.17-1-.14-1.17-.13-.88-.23-.59-.28-.5-.4-.51-.19-.4-1.22-3.33-1.26-.24-.68-.21-1.47.26-1.46.44-2.14.89-1.33,1.07-1.33,1.08-1.71,1.57-1.78,1.84-.46.47-.97.95-1.46,1.18-1.21.95-1.43,1.65-.47.07-.45-.42-.43-.11-5.24.09-1.9-.41-.81-1.01-.3-.72-.05-.38-.14-2.19-.38-.82-2.24-4.82-.75-1.81-.52-5.24.26-1.45.74-1.15,1.01-.6,1.08-.64,1.96-.48,3.7-.53.89-.27,1.52-.46,1-1.09.33-.75-.12-1.71-.37-.78-.96-.82-1.02-.55-5.94-1.89-4.67-1.49-3.84-1.22-2.44-1.24-2.2-1.75-1.55-2.68-.36-1.92,1.1-4.53,1.73-4.4.98-1.66,1.23-1.77,2.04-2.1.43.2,4.33,2.01,1.95.7,1.63.34,2.17,1.12,2.1,3.87.88.65.25.19.25.18,1.5.2.59-.11.03-.03.88-.76.59-1.36,1.26-5.28.15-1.71.6-1.34.21-.46.85-.82,1.13-.51.59-.11,1.59.15,1.07.29,1.72.75,1.19.72.81,1.13.12.45-.54,1.1-1.67,1.68-3.86,3.42-.94,1.66" vector-effect="none" fill="#594221" fill-rule="evenodd" isolation="isolate"/>
    <path d="M118.95,155.83v-4.87h.93l2.87,3.51h-.45v-3.51h1.11v4.87h-.93l-2.88-3.51h.45v3.51h-1.11M126.83,155.91c-.39,0-.74-.06-1.07-.19-.33-.13-.61-.3-.85-.53-.24-.23-.42-.49-.56-.8-.13-.31-.2-.64-.2-1s.07-.7.2-1c.13-.31.32-.57.56-.8s.52-.4.85-.53.68-.19,1.06-.19.74.06,1.06.19.6.3.84.53c.24.23.43.49.56.8.13.3.2.64.2,1.01s-.07.7-.2,1.01c-.13.31-.32.58-.56.8-.24.22-.52.4-.84.53-.32.13-.67.19-1.05.19M126.83,154.95c.22,0,.42-.04.6-.11.18-.07.34-.18.48-.32.14-.14.25-.3.32-.49.08-.19.11-.4.11-.63s-.04-.44-.11-.63c-.08-.19-.18-.35-.32-.49-.14-.14-.3-.25-.48-.32-.19-.07-.39-.11-.61-.11s-.42.04-.6.11c-.18.07-.34.18-.48.32-.14.14-.25.3-.32.49-.08.19-.11.4-.11.63s.04.44.11.63c.08.19.18.36.32.5.14.14.3.25.48.32s.39.11.61.11M130.23,155.83v-4.87h2.11c.44,0,.81.07,1.13.21.32.14.56.34.73.61.17.26.26.58.26.95s-.09.67-.26.94c-.17.26-.42.46-.73.6-.32.14-.69.21-1.13.21h-1.48l.5-.49v1.85h-1.13M133.32,155.83l-1.22-1.77h1.2l1.23,1.77h-1.22M131.35,154.1l-.5-.53h1.42c.35,0,.61-.08.78-.23.17-.15.26-.36.26-.62s-.09-.48-.26-.63c-.17-.15-.43-.22-.78-.22h-1.42l.5-.54v2.76M134.62,155.83l2.17-4.87h1.11l2.18,4.87h-1.18l-1.78-4.3h.45l-1.79,4.3h-1.16M135.71,154.79l.3-.86h2.5l.31.86h-3.11" vector-effect="none" fill="#fff"/>
  </g>
  <g id="Caces">
    <path id="Caces-2" data-name="Caces" d="M224.9,249.42l.74.02.67-.16.71-.23.85-.11h.61s.6.14.6.14l.47.3.44.51.42.51.43.31.65.26.59.27.15.32-.18,1.38-.32.66-1.41,2.3-.94,1.69-.72.75-.54.49-.12.39v.54s.21.51.21.51l.5.55,1.51,1.3.58.42,1.87,1.11,1.11.76.66.7.47.95,1.08,1.86.43,1.38.44,2.18-6.25.74-7.51,1.14-3.46.46-3.99.62-5.1.82-.77.07-2.78,1.18-3.01,1.21-2.41,1.06-4.87,2.18-1.18,3.31-1.19,2.97-.52,1.39-1.55,3.81-1.65,4.35-.82,1.92-.09,6.62-1.54,15.15,4.08,8.88.79,1.85-5.71,3.28-5.63,3.54-7.2,3.75-2.38,1.24-.48-.44-3.35-3.4-1.12-1.13-5.01-6.13-4.68-5.37-9.85-13.81-.13-.18-1.89-2.89-2.94-6.96-.96-3.39-4.23-11.64-.03-.27,6.44-4.91,6.23-3.16-.27-8.62,2.32-.93,1.47-.17,3.22-1.13,12.9-7.5,2.56.43,1.6.15,1.43.18,1.66.11,1.61.26.51.2.77.02,1.77-.09,1.31-.38.31-.52.63-.69.39-.81.29-.83.57-1.38.37-.57.6-.94.91-1.31.9-1.55.82-1.36.95-1.04,2.31-2.24,1.56-1.33,1.86-1.24,1.78-1.12,1.44-.66,1.38-.19,1.36-.03,1.35.14,1.28.26,1.23.31,1.78.41,1.7.4,1.48.4.65.21,1.62.45,2.61.48,2.1.48,1.79.43,2.37.51,1.16.35.69.21.91.2.79.12" vector-effect="none" fill="#74c8c1" fill-rule="evenodd" isolation="isolate"/>
    <path d="M159.75,292.32c-.38,0-.72-.06-1.05-.18-.32-.12-.6-.3-.84-.53-.24-.23-.42-.49-.55-.8-.13-.31-.2-.64-.2-1.01s.07-.7.2-1.01c.13-.31.32-.57.56-.8.24-.23.52-.4.84-.53.32-.12.67-.18,1.05-.18.42,0,.8.07,1.14.22.34.15.63.36.86.64l-.72.67c-.17-.19-.35-.33-.56-.43-.2-.1-.43-.14-.67-.14-.23,0-.44.04-.63.11-.19.07-.35.18-.49.32-.14.14-.25.3-.32.49-.08.19-.11.4-.11.63s.04.44.11.63c.08.19.18.35.32.49.14.14.3.25.49.32.19.07.4.11.63.11.24,0,.46-.05.67-.14.2-.1.39-.24.56-.43l.72.67c-.23.28-.52.5-.86.65-.34.15-.72.22-1.15.22M161.82,292.24l2.17-4.87h1.11l2.18,4.87h-1.18l-1.78-4.3h.45l-1.79,4.3h-1.16M162.9,291.19l.3-.86h2.5l.31.86h-3.11M170.07,292.32c-.38,0-.72-.06-1.05-.18-.32-.12-.6-.3-.84-.53-.24-.23-.42-.49-.55-.8s-.2-.64-.2-1.01.07-.7.2-1.01c.13-.31.32-.57.56-.8s.52-.4.84-.53c.32-.12.67-.18,1.05-.18.42,0,.8.07,1.14.22.34.15.63.36.86.64l-.72.67c-.17-.19-.35-.33-.56-.43-.2-.1-.43-.14-.67-.14-.23,0-.44.04-.63.11-.19.07-.35.18-.49.32-.14.14-.25.3-.32.49-.08.19-.11.4-.11.63s.04.44.11.63c.08.19.18.35.32.49.14.14.3.25.49.32.19.07.4.11.63.11.24,0,.46-.05.67-.14.2-.1.39-.24.56-.43l.72.67c-.23.28-.52.5-.86.65-.34.15-.72.22-1.15.22M173.81,289.33h2.34v.88h-2.34v-.88M173.9,291.33h2.65v.9h-3.77v-4.87h3.68v.9h-2.56v3.06M178.93,292.32c-.39,0-.76-.05-1.12-.16-.36-.1-.64-.24-.86-.41l.38-.85c.21.15.46.27.74.37.29.1.57.14.87.14.22,0,.4-.02.54-.07s.24-.11.3-.18.1-.17.1-.27c0-.13-.05-.23-.15-.31-.1-.08-.24-.14-.4-.19-.17-.05-.35-.1-.55-.14s-.4-.1-.61-.16c-.2-.06-.39-.15-.55-.25-.17-.1-.3-.24-.41-.4s-.16-.38-.16-.64c0-.28.08-.53.23-.76.15-.23.38-.41.68-.55.3-.14.69-.21,1.14-.21.31,0,.61.04.9.11s.56.18.79.32l-.35.86c-.23-.13-.45-.23-.68-.29-.23-.06-.45-.09-.67-.09s-.4.03-.54.08-.24.12-.3.2c-.06.08-.09.18-.09.28,0,.13.05.23.15.3s.24.14.4.18.35.09.55.14c.2.05.4.1.61.16.2.06.39.14.55.24.17.1.3.24.41.4.1.17.16.38.16.63,0,.27-.08.52-.23.75s-.38.41-.69.55c-.3.14-.69.21-1.15.21" vector-effect="none" fill="#fff"/>
  </g>
  <g id="Sograndio">
    <path id="Sograndio-2" data-name="Sograndio" d="M266.33,197.19l.36,1.08-.44,1.08-2.94.91-2.28.73-1.7.5-.31.24-1.61,1.37-.79.64-1.05.82-1.24,1.87-.11,1.57.07.84.45,1.52.48,1.02-.06,1.86v.96s.38,1.9.38,1.9l.27.48.43.78.21.09.11.16.12.51.12.46.34.77.8.7.46,1.13.9.73-.07.3.03.48.03.54.14.52.08.16-9.38,3.27-12.78.65-2.35,2.07-1.34,6.75-3.23,8.54,1.47,5.07.17.97-.59-.27-.65-.26-.43-.31-.42-.51-.44-.51-.47-.3-.6-.14h-.61s-.85.1-.85.1l-.71.23-.67.16-.74-.02-.79-.12-.91-.2-.69-.21-1.16-.35-2.37-.51-1.79-.43-2.1-.48-2.61-.48-1.62-.45-.65-.21-1.48-.4-1.7-.4-1.78-.41-1.23-.31-1.28-.26-1.35-.14-1.36.03-1.38.19-1.44.66-4.77-6.2.09-2.62v-3.59s-6.75-5.04-6.75-5.04l-2.1-1.91-1.81-1.46-3.47-2.8-3.12-4.73-2.23-3.3-2.29-3.39-3.63-8.4-7.2-2.32-2.9-3.46-1.22-9.99,9.74-2.29,15.11-1.81,6.44-5.64,1.39-.06,2.51-.13,2.15-.06,1.64.35,1.53.44,1.57.78.62.61-2.27,3.14.71,1.86-3.3,1.46-1.24-.05-4.08,2.35,1.12,2.43,3.4-1.77,5.25-1.51,4.65,5.66,3.14,1.38,5.82-1.92,5.62-3.46.65-.12,1.16.17.79-.15,1.03-.16,1.24-.12.66.33.47.53-.23.72-.21,1.19.29,1.13.88,1.01.94.56.81.22.5-.14.43-.34.57-.49.44-.14.44-.08.51.1.63.2.24-.03.35-.18.35-.68.38-.66,2.45,1.27-.13,1.01.33.64.34.34.86.08.73-.06.54.07.81.32.42.25.54.14.66.11.57.12.34.4.35.4.49.46,1.18.47,1.47.44,1.07.06.76-.28,2.59-.17,1.03-.18.81-.26,1.22.21.85.41.5.03.34-.4v-.93s2.7.08,2.7.08l.88-.08,1.65-.08.24.66.32.43-.31.16,1.17.99,1.04.2.31.27.22-.13-.21-.19.27-.17.25-.21.7-.12,1.53.33.3.05.3.02h.59s.79-.05.79-.05l1.08-.12.8-.18" vector-effect="none" fill="#e4ab55" fill-rule="evenodd" isolation="isolate"/>
    <path d="M188.91,214.44c-.39,0-.76-.05-1.12-.16-.36-.1-.64-.24-.86-.41l.38-.85c.21.15.46.27.74.37s.57.14.87.14c.22,0,.4-.02.54-.07s.24-.11.3-.18c.06-.08.1-.17.1-.27,0-.13-.05-.23-.15-.31-.1-.08-.24-.14-.4-.19-.17-.05-.35-.1-.55-.14-.2-.04-.4-.1-.61-.16s-.39-.15-.55-.25c-.17-.1-.3-.24-.41-.4-.1-.17-.16-.38-.16-.64,0-.28.08-.53.23-.76.15-.23.38-.41.68-.55.3-.14.69-.21,1.14-.21.31,0,.61.04.9.11s.56.18.79.32l-.35.86c-.23-.13-.45-.23-.68-.29s-.45-.09-.67-.09-.4.03-.54.08c-.14.05-.24.12-.3.2-.06.08-.09.18-.09.28,0,.13.05.23.15.3.1.08.24.14.4.18.17.05.35.09.55.14.2.05.4.1.61.16.2.06.39.14.55.24.17.1.3.24.41.4.1.17.16.38.16.63,0,.27-.08.52-.23.75s-.38.41-.69.55c-.3.14-.69.21-1.15.21M194.23,214.44c-.39,0-.74-.06-1.07-.19-.33-.13-.61-.3-.85-.53-.24-.23-.42-.49-.56-.8-.13-.31-.2-.64-.2-1s.07-.7.2-1c.13-.31.32-.57.56-.8s.52-.4.85-.53.68-.19,1.06-.19.74.06,1.06.19.6.3.84.53c.24.23.43.49.56.8.13.3.2.64.2,1.01s-.07.7-.2,1.01c-.13.31-.32.58-.56.8-.24.22-.52.4-.84.53-.32.13-.67.19-1.05.19M194.23,213.48c.22,0,.42-.04.6-.11.18-.07.34-.18.48-.32.14-.14.25-.3.32-.49.08-.19.11-.4.11-.63s-.04-.44-.11-.63c-.08-.19-.18-.35-.32-.49-.14-.14-.3-.25-.48-.32-.19-.07-.39-.11-.61-.11s-.42.04-.6.11c-.18.07-.34.18-.48.32-.14.14-.25.3-.32.49-.08.19-.11.4-.11.63s.04.44.11.63c.08.19.18.36.32.5.14.14.3.25.48.32s.39.11.61.11M199.98,214.44c-.39,0-.74-.06-1.06-.18-.32-.12-.6-.3-.84-.53-.24-.23-.42-.49-.56-.8s-.2-.64-.2-1.01.07-.7.2-1.01c.13-.31.32-.57.56-.8s.52-.4.85-.53c.32-.12.68-.18,1.07-.18.43,0,.82.07,1.17.22s.64.35.87.63l-.72.67c-.18-.19-.37-.32-.58-.41-.21-.09-.44-.14-.68-.14s-.45.04-.65.11c-.19.07-.36.18-.5.32-.14.14-.25.3-.33.49-.08.19-.11.4-.11.63s.04.44.11.63c.08.19.19.36.33.5.14.14.31.25.5.32.19.07.4.11.64.11s.44-.04.65-.11c.21-.07.42-.19.62-.37l.64.81c-.26.2-.57.35-.92.46-.35.11-.7.16-1.05.16M200.92,213.67v-1.83h1.03v1.98l-1.03-.15M202.91,214.35v-4.87h2.11c.44,0,.81.07,1.13.21.32.14.56.34.73.61.17.26.26.58.26.95s-.09.67-.26.94c-.17.26-.42.46-.73.6-.32.14-.69.21-1.13.21h-1.48l.5-.49v1.85h-1.13M206,214.35l-1.22-1.77h1.2l1.23,1.77h-1.22M204.03,212.63l-.5-.53h1.42c.35,0,.61-.08.78-.23.17-.15.26-.36.26-.62s-.09-.48-.26-.63c-.17-.15-.43-.22-.78-.22h-1.42l.5-.54v2.76M207.3,214.35l2.17-4.87h1.11l2.18,4.87h-1.18l-1.78-4.3h.45l-1.79,4.3h-1.16M208.39,213.31l.3-.86h2.5l.31.86h-3.11M213.22,214.35v-4.87h.93l2.87,3.51h-.45v-3.51h1.11v4.87h-.93l-2.88-3.51h.45v3.51h-1.11M218.74,214.35v-4.87h2.21c.53,0,1,.1,1.4.3.4.2.72.48.95.85.23.36.34.79.34,1.29s-.11.92-.34,1.28c-.23.36-.54.65-.95.85-.4.2-.87.3-1.4.3h-2.21M219.87,213.43h1.03c.32,0,.61-.06.85-.18.24-.12.42-.3.56-.53.13-.23.2-.49.2-.8s-.07-.58-.2-.8c-.13-.22-.32-.4-.56-.52-.24-.12-.52-.18-.85-.18h-1.03v3.02M224.5,214.35v-4.87h1.13v4.87h-1.13M229.27,214.44c-.39,0-.74-.06-1.07-.19-.33-.13-.61-.3-.85-.53-.24-.23-.42-.49-.56-.8s-.2-.64-.2-1,.07-.7.2-1,.32-.57.56-.8c.24-.23.52-.4.85-.53s.68-.19,1.06-.19.74.06,1.06.19c.32.13.6.3.84.53.24.23.43.49.56.8s.2.64.2,1.01-.07.7-.2,1.01c-.13.31-.32.58-.56.8-.24.22-.52.4-.84.53-.32.13-.67.19-1.05.19M229.26,213.48c.22,0,.42-.04.6-.11.18-.07.34-.18.48-.32.14-.14.25-.3.32-.49.08-.19.11-.4.11-.63s-.04-.44-.11-.63c-.08-.19-.18-.35-.32-.49-.14-.14-.3-.25-.48-.32-.19-.07-.39-.11-.61-.11s-.42.04-.6.11c-.18.07-.34.18-.48.32-.14.14-.25.3-.32.49-.08.19-.11.4-.11.63s.04.44.11.63c.08.19.18.36.32.5.14.14.3.25.48.32.19.07.39.11.61.11" vector-effect="none" fill="#fff"/>
  </g>
  <g id="Udrin">
    <path id="Udrin-2" data-name="Udrin" d="M151.97,181.49l-.49,2.16-.45,1.85-.52,1.42-.44,1.26-.86,1.12-.9.39-1.51.45-2.29.34-2.02.33-2.08.96-.94.69-1.12,1.19-.74,1.14-.58,1.41-.17.42-1.45-.66-.28-.12.22-1.04-3.31-.67-1.71-1.08,4.26-6.6,1-.74-1.64-3.58-.5.07-1.32.16-1.6.16-4.02-4.19-1.04-.51,1.32-1.2.27-.51-.32-.57-.58-.47-.14-.14-.34-.18-2.2-1.15-.83-.78.47-.07,1.43-1.65,1.21-.95,1.46-1.18.97-.95.46-.47,1.78-1.84,1.71-1.57,1.33-1.08,1.33-1.07,2.14-.89,1.46-.44,1.47-.26.68.21,1.26.24,1.22,3.33.19.4.4.51.28.5.23.59.13.88.14,1.17.17,1,.29,1.37.24,1.37.28.81.49.61.77.67,1.09.74.72.47,1.06.78.53.34.54.58.65.74.31.45.42.95.05,1.08v1.25" vector-effect="none" fill="#b72fcc" fill-rule="evenodd" isolation="isolate"/>
    <path d="M126.16,180.69c-.69,0-1.23-.19-1.62-.58-.39-.39-.58-.93-.58-1.65v-2.73h1.13v2.69c0,.46.1.8.29,1,.19.2.46.31.8.31s.61-.1.8-.31c.19-.2.29-.54.29-1v-2.69h1.11v2.73c0,.71-.19,1.26-.58,1.65-.39.39-.93.58-1.62.58M129.52,180.61v-4.87h2.21c.53,0,1,.1,1.4.3s.72.48.95.85.34.79.34,1.29-.11.92-.34,1.28c-.23.36-.54.65-.95.85-.4.2-.87.3-1.4.3h-2.21M130.64,179.68h1.03c.32,0,.61-.06.85-.18.24-.12.42-.3.56-.53.13-.23.2-.49.2-.8s-.07-.58-.2-.8c-.13-.22-.32-.4-.56-.52-.24-.12-.52-.18-.85-.18h-1.03v3.02M135.28,180.61v-4.87h2.11c.44,0,.81.07,1.13.21.32.14.56.34.73.61.17.26.26.58.26.95s-.09.67-.26.94c-.17.26-.42.46-.73.6-.32.14-.69.21-1.13.21h-1.48l.5-.49v1.85h-1.13M138.37,180.61l-1.22-1.77h1.2l1.23,1.77h-1.22M136.4,178.88l-.5-.53h1.42c.35,0,.61-.08.78-.23.17-.15.26-.36.26-.62s-.09-.48-.26-.63c-.17-.15-.43-.22-.78-.22h-1.42l.5-.54v2.76M140.31,180.61v-4.87h1.13v4.87h-1.13M145.08,180.69c-.39,0-.74-.06-1.07-.19-.33-.13-.61-.3-.85-.53-.24-.23-.42-.49-.56-.8-.13-.31-.2-.64-.2-1s.07-.7.2-1c.13-.31.32-.57.56-.8s.52-.4.85-.53c.32-.13.68-.19,1.06-.19s.74.06,1.06.19c.32.13.6.3.84.53.24.23.43.49.56.8.13.3.2.64.2,1.01s-.07.7-.2,1.01c-.13.31-.32.58-.56.8-.24.22-.52.4-.84.53-.32.13-.67.19-1.05.19M145.07,179.73c.22,0,.42-.04.6-.11.18-.07.34-.18.48-.32s.25-.3.32-.49c.08-.19.11-.4.11-.63s-.04-.44-.11-.63c-.08-.19-.18-.35-.32-.49-.14-.14-.3-.25-.48-.32-.19-.07-.39-.11-.61-.11s-.42.04-.6.11c-.18.07-.34.18-.48.32-.14.14-.25.3-.32.49-.08.19-.11.4-.11.63s.04.44.11.63c.08.19.18.36.32.5s.3.25.48.32c.19.07.39.11.61.11M144.44,175.34l.94-1h1.17l-1.26,1h-.85M148.47,180.61v-4.87h.93l2.87,3.51h-.45v-3.51h1.11v4.87h-.93l-2.88-3.51h.45v3.51h-1.11" vector-effect="none" fill="#fff"/>
  </g>
  <g id="Puerto">
    <path id="Puerto-2" data-name="Puerto" d="M235.19,285.15l.78.06.77-.25.68-.32,1.34-.51,1.27-.54.69-.47.83-.72.74-.61.95-.8.6-.7.63-.74.68-.66,1.04-1.1,1.13-.96,3.07-2.75.6-.29.57-.19h.51s.83.23.83.23l1.02.29.52.18.55.49.25.3.2.66.03.99.2,2.03.09,1.94.27,2.01.17,2.84.31,2.19,1.22,3.18,1.4.71-.11.14-1.15,3.62-.59,3.43-4.99,3.84-.86.67-.15.11-4.11,3.15-.32.25-2.14.71-3.48,1.61-.85,1.47-.88.89-1.7,1.24-3.82,2.78-1.4,1.02-12.22,4.99-20.62,11.27-6.67-1.63-.79-1.85-4.08-8.88,1.54-15.15.09-6.62.82-1.92,1.65-4.35,1.55-3.81.52-1.39,1.19-2.97,1.18-3.31,4.87-2.18,2.41-1.06,3.01-1.21,2.78-1.18.77-.07,5.1-.82,3.99-.62,3.46-.46,7.51-1.14,6.25-.74.02.69.05,1.78v1.7s.09,1.14.09,1.14l-.11.87-.31.89-.58.71-.62.54-.81.8-.87.77-.84.95.42.95.43.71.43.48.3.28.27.27.45.18" vector-effect="none" fill="#b084e3" fill-rule="evenodd" isolation="isolate"/>
    <path d="M205.18,302.26v-4.87h2.11c.44,0,.81.07,1.13.21.32.14.56.34.73.61.17.26.26.58.26.95s-.09.67-.26.94-.42.47-.73.61c-.32.14-.69.21-1.13.21h-1.48l.5-.51v1.85h-1.13M206.3,300.54l-.5-.54h1.42c.35,0,.61-.07.78-.22.17-.15.26-.35.26-.62s-.09-.48-.26-.63c-.17-.15-.43-.22-.78-.22h-1.42l.5-.54v2.76M212.38,302.35c-.69,0-1.23-.19-1.62-.58-.39-.39-.58-.93-.58-1.65v-2.73h1.13v2.69c0,.46.1.8.29,1,.19.2.46.31.8.31s.61-.1.8-.31c.19-.2.29-.54.29-1v-2.69h1.11v2.73c0,.71-.19,1.26-.58,1.65-.39.39-.93.58-1.62.58M216.77,299.35h2.34v.88h-2.34v-.88M216.85,301.36h2.65v.9h-3.77v-4.87h3.68v.9h-2.56v3.06M220.29,302.26v-4.87h2.11c.44,0,.81.07,1.13.21.32.14.56.34.73.61.17.26.26.58.26.95s-.09.67-.26.94c-.17.26-.42.46-.73.6-.32.14-.69.21-1.13.21h-1.48l.5-.49v1.85h-1.13M223.39,302.26l-1.22-1.77h1.2l1.23,1.77h-1.22M221.42,300.54l-.5-.53h1.42c.35,0,.61-.08.78-.23.17-.15.26-.36.26-.62s-.09-.48-.26-.63c-.17-.15-.43-.22-.78-.22h-1.42l.5-.54v2.76M226.34,302.26v-3.95h-1.56v-.92h4.24v.92h-1.56v3.95h-1.13M232.02,302.35c-.39,0-.74-.06-1.07-.19-.33-.13-.61-.3-.85-.53-.24-.23-.42-.49-.56-.8s-.2-.64-.2-1,.07-.7.2-1,.32-.57.56-.8.52-.4.85-.53c.32-.13.68-.19,1.06-.19s.74.06,1.06.19c.32.13.6.3.84.53.24.23.43.49.56.8.13.3.2.64.2,1.01s-.07.7-.2,1.01c-.13.31-.32.58-.56.8-.24.22-.52.4-.84.53-.32.13-.67.19-1.05.19M232.01,301.39c.22,0,.42-.04.6-.11.18-.07.34-.18.48-.32s.25-.3.32-.49c.08-.19.11-.4.11-.63s-.04-.44-.11-.63c-.08-.19-.18-.35-.32-.49-.14-.14-.3-.25-.48-.32-.19-.07-.39-.11-.61-.11s-.42.04-.6.11c-.18.07-.34.18-.48.32-.14.14-.25.3-.32.49-.08.19-.11.4-.11.63s.04.44.11.63c.08.19.18.36.32.5.14.14.3.25.48.32.19.07.39.11.61.11" vector-effect="none" fill="#fff"/>
  </g>
  <g id="Braes">
    <path d="M263.25,9.94l24.34,15.78.13-.06,1.36-.63.73.05.34.28.15.12.16.6-.14.56-.84,1.66h0s.15,1.08.15,1.08l.63.8.84.39.86.05,2.31-.66,3.03-1.64,1.41-.85,2.16-.57,3.15-.84,1.24-.05.7-.03,1.62.3,3.35.61.96.14.98.38,1.13.91,3.87,1.56h.02s2.71.36,2.71.36l3.02-.46,2.47-1.46,3.07-2.03.97-1.06,2.16-1.69,2.66-1.08,1.74-.21,2.68.22,2,.17,5.07,1.75,1.43.95,2.06,2.98.63.73.06,1.32-1.06,1.38-1.8,1.8-1.48,2.28-1.79,1.32-.78.89-.21.81-.07.26.36,1.29,1.8,3.04,1.07,1.8,1.09,1.59-1.53.26-1.12.85-2.07.9-3.26,1.03-1.49.96-2.95,2.59-2.62,1.63-.81.99-.75.64-2.79.92-3.72,3.5-5.73.65-13.72,1.78-.82,14.29-6.71,3.87-11.18,4.77-.56-1.26-.34-.71v-.33s.09-.57.09-.57l-.26-.09-.3-.24-.25-.3-.24-.44-.22-.33-.66-.21-.51-.15-.48-.29-.45-.42-.26-.33-.21-.34-.38-.75-.27-.83-.14-.35-.16-.11-.29.02-1.4.54-.28.05-.47-.1-.37-.19-.82-.36-1.66-.68-.42-.75-1-1.18-.81-.21-.94-.15-.46-.03-.43.04-.32.1-.16.19-.19.45-.16.2-.27.1-.39.06-1.13.17-.3-.02-.4-.14-.47-.17-.48-.05-.46.03-.66.12-.48.24-.51.23-.48.37-.31.53-.41.45-.44.51-.38.28-.51.08-.57.02-.56-.04-1.64-.21-2.38-1.49-5.35-6.76-4.4-4.24-5.22-3.98-.49-.9-.42-.27-.63.54-.74.24-.51-.07-.61-.45-.28-.49-1.67-.16,1.23-2.85,1.7-3.93.41-.92.82-1.86,1.74-3.56.54-1.24,6.7-15.21.11-.25.33-.75.86-1.96,3.33-7.65.91-3.44,1.33-5.04,1.4-5.24.91.6,3.7,2.42" vector-effect="none" fill="#e9d379" fill-rule="evenodd" isolation="isolate"/>
    <path d="M273.69,46.61v-4.87h2.38c.61,0,1.07.12,1.38.35.31.23.46.54.46.92,0,.26-.06.48-.19.66-.13.19-.3.33-.51.43-.22.1-.47.15-.75.15l.13-.29c.31,0,.58.05.81.15.24.1.42.25.55.44.13.19.2.43.2.72,0,.42-.16.74-.49.98-.33.23-.81.35-1.45.35h-2.52M274.81,45.76h1.32c.29,0,.51-.05.66-.14.15-.1.23-.25.23-.46s-.08-.36-.23-.46-.37-.15-.66-.15h-1.4v-.82h1.2c.27,0,.48-.05.63-.14.15-.1.22-.24.22-.43s-.07-.33-.22-.43c-.15-.1-.36-.14-.63-.14h-1.12v3.17M278.97,46.61v-4.87h2.11c.44,0,.81.07,1.13.21.32.14.56.34.73.61.17.26.26.58.26.95s-.09.67-.26.94c-.17.26-.42.46-.73.6-.32.14-.69.21-1.13.21h-1.48l.5-.49v1.85h-1.13M282.06,46.61l-1.22-1.77h1.2l1.23,1.77h-1.22M280.09,44.88l-.5-.53h1.42c.35,0,.61-.08.78-.23.17-.15.26-.36.26-.62s-.09-.48-.26-.63c-.17-.15-.43-.22-.78-.22h-1.42l.5-.54v2.76M283.37,46.61l2.17-4.87h1.11l2.18,4.87h-1.18l-1.78-4.3h.45l-1.79,4.3h-1.16M284.45,45.56l.3-.86h2.5l.31.86h-3.11M289.28,46.61v-4.87h.93l2.87,3.51h-.45v-3.51h1.11v4.87h-.93l-2.88-3.51h.45v3.51h-1.11M292.04,41.36c-.12,0-.23-.02-.32-.07-.09-.04-.18-.1-.25-.15-.07-.06-.14-.11-.21-.15-.06-.04-.13-.07-.19-.07-.09,0-.17.03-.23.1-.06.07-.1.16-.1.29h-.55c0-.31.09-.56.23-.74.14-.18.34-.27.58-.27.12,0,.23.02.32.07s.18.1.25.16.15.11.21.16.13.07.19.07c.1,0,.18-.03.24-.1.06-.07.09-.16.1-.27h.55c0,.3-.08.54-.23.72-.15.18-.34.27-.59.27M295.84,43.7h2.34v.88h-2.34v-.88M295.92,45.7h2.65v.9h-3.77v-4.87h3.68v.9h-2.56v3.06M300.96,46.69c-.39,0-.76-.05-1.12-.16-.36-.1-.64-.24-.86-.41l.38-.85c.21.15.46.27.74.37.29.1.57.14.87.14.22,0,.4-.02.54-.07.14-.04.24-.11.3-.18.07-.08.1-.17.1-.27,0-.13-.05-.23-.15-.31-.1-.08-.24-.14-.4-.19-.17-.05-.35-.1-.55-.14-.2-.04-.4-.1-.61-.16-.2-.06-.39-.15-.55-.25-.17-.1-.3-.24-.41-.4-.1-.17-.16-.38-.16-.64,0-.28.08-.53.23-.76.15-.23.38-.41.68-.55.3-.14.69-.21,1.14-.21.31,0,.61.04.9.11s.56.18.79.32l-.35.86c-.23-.13-.45-.23-.68-.29s-.45-.09-.67-.09-.4.03-.54.08-.24.12-.3.2c-.06.08-.09.18-.09.28,0,.13.05.23.15.3.1.08.24.14.4.18s.35.09.55.14c.2.05.4.1.61.16.2.06.39.14.55.24.17.1.3.24.41.4.1.17.16.38.16.63,0,.27-.08.52-.23.75s-.38.41-.69.55c-.3.14-.69.21-1.15.21" vector-effect="none" fill="#fff"/>
  </g>
  <g id="Villaperez">
    <path d="M404.09,47.72l1.85.07.48-.12,1.05-.26.68-.33.6-.54,1.14-2.48,1.14-4.6.16-1.52.78-1.61h0s1.34-.85,1.34-.85l1.19.14,1.38.54,6.27,4.49,1.56,1.12.86.82.56.54.34.33.08.21.71,1.84v1.78s.34.98.34.98l.4,1.08.08.22.49.57,1.05.48.42.06,1.01.14,1.53.2,1.92.11,1.49.09,7.64.94,2.94-.77.76-.13,3.04-.54,2.68-.5,1.34-.92,2.02-2.1.44-1.84-1.98-3.47.15-1.76.91-2.38,1.94-1.57,1.79-.62,1.6-.04h.09s2.14.45,2.14.45l4.35,4.06,1.22,1.46.26,1.32-1.77,1.66-.93,1.3.06,1.23.74,1.02,1.63.42.34.09,1.97-.34,7.06-2.2,2.72-.38,1.99-.48,2.42-.61,1.79-3.3,1.92-1.93,3.74-4.19,1.73-1.27,1.68-.74,2.25-.73,3.9-.75,9.13-1.19,2.04.44,1.56.34,2.17.47,2.07.3.92.13,1.49.83,1.53,1.89.57.71-1.55.86-1.65.69-2.44.76-2.49.54-2.75.32-1.92.23-2.41-.06-2.53-.39-2.5-.59-.5.12-.65.15-.24.56.46,2.04,1,1.59,2.83,1.87,1.87,1.24,1.3,4.23.81,2.65,1.14,1.83,1.82,1.5,1.43,1.75,1.65,1.45.02.04.85,1.48.17.29-.36,2.27-.77,1.83.68,1.77.23.28-1.01.3-4.51.47-2.86,3.13-.23.83-5.82,1.04-16.03,2.78.6,1.15-.18,1.35-.18,1.22-.6.24-.62.61-.28.58-.83.54-.84.29-.73,6.33-.61,5.88-5.8,4.74-1.28,1.08-1.11.97-.69.54-.65.61-.36.33-.43.33-.47.19-.68.07-.79-.23-.65-.11-1.08.15-.81.22-.6.31-.78.09-1.03-.17-.89-.05-2.87-.46-15.95-2.88-9-5.84-15.14-1.56-17.91,3.28-10.56.16-25.41-1.76-11.83-.31-5.71-.1-13.77-.41-2.8-.18-6.75-1.37-19.67-4.21-5.81-1.69-2.83-3.61,6.71-3.87.82-14.29,13.72-1.78,5.73-.65,3.72-3.5,2.79-.92.75-.64.81-.99,2.62-1.63,2.95-2.59,1.49-.96,3.26-1.03,2.07-.9,1.12-.85,1.53-.26.87,1.27.1.15.48,1.3.05.13h0s.89.87.89.87l1.65.54,1.03.12.31-.02.77-.05.48-.12.6-.15,1.81-.91,1.46-1.26,3.02-3.83.92-2.21.18-1.69-.81-2.51-1.19-3.37v-1.2s.89-1.54.89-1.54l2.13-1.84,3.43-2.16,1.36-.92.88-.6,2.34-2.15,2.76-3.01.83-1.12.17-.23.85-1.61-.1-1.49-.89-1.45-.14-1.56-.53-.76-.69-.58-3.72-1.88-5.32-2.01-1.33-.68-1.08-.56-.86-.7-.12-.21-.7-1.19.39-1.17.13-.38.76-.72.87-.48,1.95-.68,1-.63,2.7-.81,5.75-.75,3.54.08,2.14.48.68,1.09,1.25,2.02.91,2.51,1.06,1.39.25,2.4,1.23,1.61,1.1.84,4.21,1.75,2.26,1.73,1.48.64,2.45.18,2.94.05,1.89.19,3.97.09,5.08,1.22,1.72.8,4.37.93.4.69-.38,1.45-.1.36-.54.85-.08.13-.42.66-1.45,1.41-1.4,1.07-4.14,1.77-2.69,1.17-4.6,3.32-2.41,2.2-.43.59-.2.66-.63,2.11-.02,2.46.45,1.17,2.92,3.9.31.31.03.03.25.25.35.19,1.35.73.46.14.41.13" vector-effect="none" fill="#63e15d" fill-rule="evenodd" isolation="isolate"/>
    <path d="M392.6,72.69l-2.1-4.87h1.22l1.84,4.31h-.72l1.86-4.31h1.12l-2.11,4.87h-1.11M396.18,72.69v-4.87h1.13v4.87h-1.13M398.58,72.69v-4.87h1.13v3.95h2.44v.92h-3.57M402.89,72.69v-4.87h1.13v3.95h2.44v.92h-3.57M406.57,72.69l2.17-4.87h1.11l2.18,4.87h-1.18l-1.78-4.3h.45l-1.79,4.3h-1.16M407.66,71.64l.3-.86h2.5l.31.86h-3.11M412.49,72.69v-4.87h2.11c.44,0,.81.07,1.13.21.32.14.56.34.73.61.17.26.26.58.26.95s-.09.67-.26.94c-.17.26-.42.47-.73.61-.32.14-.69.21-1.13.21h-1.48l.5-.51v1.85h-1.13M413.62,70.96l-.5-.54h1.42c.35,0,.61-.07.78-.22.17-.15.26-.35.26-.62s-.09-.48-.26-.63c-.17-.15-.43-.22-.78-.22h-1.42l.5-.54v2.76M418.57,69.78h2.34v.88h-2.34v-.88M418.65,71.78h2.65v.9h-3.77v-4.87h3.68v.9h-2.56v3.06M422.09,72.69v-4.87h2.11c.44,0,.81.07,1.13.21.32.14.56.34.73.61.17.26.26.58.26.95s-.09.67-.26.94c-.17.26-.42.46-.73.6s-.69.21-1.13.21h-1.48l.5-.49v1.85h-1.13M425.19,72.69l-1.22-1.77h1.2l1.23,1.77h-1.22M423.22,70.96l-.5-.53h1.42c.35,0,.61-.08.78-.23.17-.15.26-.36.26-.62s-.09-.48-.26-.63c-.17-.15-.43-.22-.78-.22h-1.42l.5-.54v2.76M428.17,69.78h2.34v.88h-2.34v-.88M428.25,71.78h2.65v.9h-3.77v-4.87h3.68v.9h-2.56v3.06M431.37,72.69v-.73l3.01-3.63.14.41h-3.1v-.92h4.1v.73l-3.01,3.63-.14-.41h3.25v.92h-4.26" vector-effect="none" fill="#fff"/>
  </g>
  <g id="Naranco">
    <polygon id="Naranco-2" data-name="Naranco" points="463.74 102.63 460.87 102.16 444.91 99.28 435.91 93.44 420.77 91.88 402.86 95.16 392.3 95.32 366.89 93.55 355.05 93.25 349.34 93.15 335.57 92.74 332.77 92.56 326.02 91.19 306.35 86.98 300.54 85.29 297.71 81.68 286.53 86.45 287.39 88.28 289.12 92.58 289.54 93.25 290.11 93.7 291.62 94.11 294.98 95.15 295.58 95.33 296.08 95.55 296.36 95.86 296.56 96.28 297.76 98.68 297.88 99.25 298.08 99.78 298.9 100.6 299.48 101.19 299.83 101.63 300.07 102.3 300.17 102.87 300.17 103.53 300.34 104.49 300.66 105.16 301.58 106.46 301.23 109.05 302.19 114.2 302.76 118.76 302.96 122.89 300.69 125.02 295.56 126.36 291.69 127.38 293.52 131.04 300.12 144.29 297.69 154.16 300.6 154.35 303.16 154.17 307.25 153.68 310 153.25 309.97 152.79 310.12 151.55 310.85 151.57 317.57 151.31 319.82 151.38 321.56 151.44 322.99 151.58 329.26 157.33 328.42 159.55 327.82 162.44 327.52 164.92 332.79 164.43 341.89 160.38 350.25 158.7 353.19 157.78 354.21 157.24 353.03 153.72 352.2 151.11 352.03 150.35 352.77 148.18 356.83 145.94 359.24 145.6 361.98 146.33 361.89 148.67 359.14 150.49 358.34 152.45 360.17 153.06 360.17 153.07 360.88 153.03 361.66 152.72 362.41 152.38 363.33 152.1 364.36 151.97 367.21 151.7 370.3 152.1 376.37 152.93 378.46 153.44 380.83 153.42 381.53 150.65 384.81 151.1 387.44 150.56 388.49 149.67 387.78 147.59 390.62 148.91 393.5 149.12 396 149 395.76 147.71 399.48 148.01 403.84 149.02 406.17 150.72 405.72 152.15 405.99 152.82 406.12 153.41 408.18 153.67 411.23 153.4 412.9 152.96 413.16 152.72 413.53 152.34 413.98 151.98 414.76 151.47 417.3 149.89 418.03 149.53 418.22 149.13 418.14 148.79 413.76 146.77 412.28 144.96 412.73 144.79 412.45 144.5 413.1 144.14 413.27 143.99 412.97 142.68 412.14 142.36 408.14 140.65 407.9 141.16 407.9 141.64 407.12 142 405.19 141.64 404.23 140.93 403.45 140.17 404.23 139.31 407.67 138.77 407.76 138.67 407.5 135.94 410.84 135.98 412.56 135.83 412.42 133.98 413.49 134.1 414.68 134.07 415.38 133.82 416.06 133.54 416.74 133.02 417.26 132.81 418.12 132.58 419.05 132.44 419.74 132.93 420.76 133.07 421.94 133.26 422.62 133.42 423.71 133.54 424.6 133.68 425.32 133.39 426.74 132.8 429.58 131.73 430.31 131.52 431.18 131.5 432.12 132.13 432.64 132.51 432.83 132.68 432.73 129.54 436.18 127.65 451.26 123.41 454.51 122.2 455.46 122.03 454.13 119.78 454.43 117.14 455.94 113.13 454.98 110.73 454.26 108.89 453.23 106.65 458.99 105.78 460.79 104.96 463.92 102.64 463.74 102.63" fill="#37a0cd" fill-rule="evenodd" isolation="isolate"/>
    <path d="M349.12,123.22v-4.87h.93l2.87,3.51h-.45v-3.51h1.11v4.87h-.93l-2.88-3.51h.45v3.51h-1.11M353.99,123.22l2.17-4.87h1.11l2.18,4.87h-1.18l-1.78-4.3h.45l-1.79,4.3h-1.16M355.08,122.17l.3-.86h2.5l.31.86h-3.11M359.91,123.22v-4.87h2.11c.44,0,.81.07,1.13.21.32.14.56.34.73.61.17.26.26.58.26.95s-.09.67-.26.94c-.17.26-.42.46-.73.6-.32.14-.69.21-1.13.21h-1.48l.5-.49v1.85h-1.13M363.01,123.22l-1.22-1.77h1.2l1.23,1.77h-1.22M361.04,121.49l-.5-.53h1.42c.35,0,.61-.08.78-.23.17-.15.26-.36.26-.62s-.09-.48-.26-.63c-.17-.15-.43-.22-.78-.22h-1.42l.5-.54v2.76M364.31,123.22l2.17-4.87h1.11l2.18,4.87h-1.18l-1.78-4.3h.45l-1.79,4.3h-1.16M365.4,122.17l.3-.86h2.5l.31.86h-3.11M370.23,123.22v-4.87h.93l2.87,3.51h-.45v-3.51h1.11v4.87h-.93l-2.88-3.51h.45v3.51h-1.11M378.08,123.3c-.38,0-.72-.06-1.05-.18-.32-.12-.6-.3-.84-.53-.24-.23-.42-.49-.55-.8s-.2-.64-.2-1.01.07-.7.2-1.01c.13-.31.32-.57.56-.8.24-.23.52-.4.84-.53.32-.12.67-.18,1.05-.18.42,0,.8.07,1.14.22.34.15.63.36.86.64l-.72.67c-.17-.19-.35-.33-.56-.43-.2-.1-.43-.14-.67-.14-.23,0-.44.04-.63.11-.19.07-.35.18-.49.32-.14.14-.25.3-.32.49-.08.19-.11.4-.11.63s.04.44.11.63c.08.19.18.35.32.49.14.14.3.25.49.32s.4.11.63.11c.24,0,.46-.05.67-.14.2-.1.39-.24.56-.43l.72.67c-.23.28-.52.5-.86.65-.34.15-.72.22-1.15.22M383.15,123.3c-.39,0-.74-.06-1.07-.19-.33-.13-.61-.3-.85-.53-.24-.23-.42-.49-.56-.8s-.2-.64-.2-1,.07-.7.2-1,.32-.57.56-.8c.24-.23.52-.4.85-.53s.68-.19,1.06-.19.74.06,1.06.19c.32.13.6.3.84.53.24.23.43.49.56.8s.2.64.2,1.01-.07.7-.2,1.01c-.13.31-.32.58-.56.8-.24.22-.52.4-.84.53-.32.13-.67.19-1.05.19M383.15,122.34c.22,0,.42-.04.6-.11.18-.07.34-.18.48-.32.14-.14.25-.3.32-.49.08-.19.11-.4.11-.63s-.04-.44-.11-.63c-.08-.19-.18-.35-.32-.49-.14-.14-.3-.25-.48-.32-.19-.07-.39-.11-.61-.11s-.42.04-.6.11c-.18.07-.34.18-.48.32-.14.14-.25.3-.32.49-.08.19-.11.4-.11.63s.04.44.11.63c.08.19.18.36.32.5.14.14.3.25.48.32.19.07.39.11.61.11" vector-effect="none" fill="#fff"/>
  </g>
  <g id="Pereda">
    <path id="Pereda-2" data-name="Pereda" d="M463.28,275.96l.21,1.06-.31.49v.41s.38.74.38.74l-.37,1.96.1.77,1.33.45.71.24.13.16.61.78.03,1.3-1.71,3.03.04.79.63.83.71.34.24.05,1.59.3.67.32.52.52,1.2,1.21.39.4.04.04,1.48,1.57.23.24-.76.67-4.21,3.69-10.45,9.22-3.42,2.23-3.26,1.57-3.29.85-1.9.19-7.38-.45-.68-.04-1.76-.11-1.1-.24-6.85,2.33-9.86,3.36-3.57,1.2-2.76,2.24-1.69-.41-1.28-.31-6.47-.25-2.09-1.03-1.24-1.12-1.66-1.57.35-3.21.45-.88-.82-2.05-1.11-1.25-3.23-1.58-.15-.07-1.12-.57,1.37-2.05.13-.2-.51-3.74,2.05-1.18,1.09-.63.29-.18,1.3-.75.63-.36.92-.77.59-1.48v-3.35s-.19-.69-.19-.69l-.49-1.94-.81-4.63-3.33-5.55.72-1.2,5.67-.7,1.02-.05,3.68.7.24-.39.36-.33.59-.23.31-.32,8.27-2.21.48-1.06-.12-.64-.38-.86.07-1.06.48-.77.06-.22.15-.73.29-.44.25-.36.4-.26.7-.33.55-.25.33-.33.05-.39.02-.27-.03-.52-.07-.48-.65-1.17.13-.17.09-.18-.11-.18,1.43-.28.64-.12.47-.13.33-.17.24-.23.43-.24.4-.16.48-.12.35-.07.56-.06.7-.08-.05-2.35,7-.25,3.89-3.53,12.37-11.03,12.57,1.5,11.15-.17-5.05,8.6-6.6,3.82-2.26,1.28,5.51,2.83.33.53.58.81.33.92.37.74-.3,2.49.18.91.92.72h0s0,.02,0,.02l.12.61-.14.58-.44.52-1.68,1.44.38,1.82.66,1.36" vector-effect="none" fill="#2e1edd" fill-rule="evenodd" isolation="isolate"/>
    <path d="M418.58,288.42v-4.87h2.11c.44,0,.81.07,1.13.21.32.14.56.34.73.61.17.26.26.58.26.95s-.09.67-.26.94-.42.47-.73.61c-.32.14-.69.21-1.13.21h-1.48l.5-.51v1.85h-1.13M419.7,286.69l-.5-.54h1.42c.35,0,.61-.07.78-.22.17-.15.26-.35.26-.62s-.09-.48-.26-.63c-.17-.15-.43-.22-.78-.22h-1.42l.5-.54v2.76M424.65,285.51h2.34v.88h-2.34v-.88M424.74,287.51h2.65v.9h-3.77v-4.87h3.68v.9h-2.56v3.06M428.17,288.42v-4.87h2.11c.44,0,.81.07,1.13.21.32.14.56.34.73.61.17.26.26.58.26.95s-.09.67-.26.94c-.17.26-.42.46-.73.6-.32.14-.69.21-1.13.21h-1.48l.5-.49v1.85h-1.13M431.27,288.42l-1.22-1.77h1.2l1.23,1.77h-1.22M429.3,286.69l-.5-.53h1.42c.35,0,.61-.08.78-.23.17-.15.26-.36.26-.62s-.09-.48-.26-.63c-.17-.15-.43-.22-.78-.22h-1.42l.5-.54v2.76M434.25,285.51h2.34v.88h-2.34v-.88M434.33,287.51h2.65v.9h-3.77v-4.87h3.68v.9h-2.56v3.06M437.77,288.42v-4.87h2.21c.53,0,1,.1,1.4.3s.72.48.95.85.34.79.34,1.29-.11.92-.34,1.28c-.23.36-.54.65-.95.85-.4.2-.87.3-1.4.3h-2.21M438.9,287.49h1.03c.32,0,.61-.06.85-.18.24-.12.42-.3.56-.53.13-.23.2-.49.2-.8s-.07-.58-.2-.8c-.13-.22-.32-.4-.56-.52-.24-.12-.52-.18-.85-.18h-1.03v3.02M442.89,288.42l2.17-4.87h1.11l2.18,4.87h-1.18l-1.78-4.3h.45l-1.79,4.3h-1.16M443.98,287.38l.3-.86h2.5l.31.86h-3.11" vector-effect="none" fill="#fff"/>
  </g>
  <g id="Cruces">
    <path id="Cruces-2" data-name="Cruces" d="M513.13,182.1l4.87,4.67,4.45,2.6,17.99,1.85,8.32,12.65,3.34,7.43,1.44,3.47,1.11,1.99,10.76-.89.19-.38.39-.31.89-.02.93.27,1.17.35,3.67,7.12-4.61.39-9.39.93-8.72,1.51-5.78,1.01,2.04,3.05,1.34-.11.74.62,1.61.95,1.69,1.9.53,1.78-.07,1.47,2.3,4.07-.16,1.02-.7,4.1-2.51,1.68-.56,1.26-1.21,4.06,1.31,3.32.36,2.36-1.04.31-1.01.54-.32.51-2.52-.68-5.97-2.46-4.42,8.25-.97,1.83-2.35,2.09-2.25,4.55-1.23,2.21-6.2,3.34-4.4,3-6.33,4.38-8.76,1.21-5.88,4.35-2.02-1.01-.58-.3,1.93-2.44.5-.63-.18-1.01-.07-.13-.06-.12-.25-.49-.24-.46-.33-.65-.14-.27-.62-.66-1.05-.6-2.61-.83-2.38-.13-1.2-.21-14.42-6.26-.16-.07-.7-2.27-.38-.4-.21-.91-.43-.78-.29-.21-.57-.41-.5-.36-2.37-1.72-1.2-.96-1.02-.82-1.33-1.53-.77.41v.05s-.38-.74-.38-.74l-.33-.92-.58-.81-.33-.53-5.51-2.83,2.26-1.28,6.6-3.82,5.05-8.6,3.74-5.91,2.13-1.78,11.26-8.43v-4.92s-.42-3.02-.42-3.02l-1.67-2.17.23-.1,2.72-.88-.19-1.19-4.61-3.86v-3.73s-2.73.08-2.73.08l-.68-.34-.53-.37.03-.41.65-.42.48-.25.61-2.32-.82-.88,1.02-.46.87-.38.97-.34.69-.15,1.56-.34,1.69-.27,2.5-.33.71-.12,1.07-.18,1.31-.28.94-.27.78-.25.75-.28.94-.39,1.25-.61.56-.32.62-.39.59-.42.46-.36.91-.79.42-.42.58-.62.33-.41.39-.54-6.12-1.43.46-2.2.82-5.09,6.41-.4,1.64-3.37,1.58.48.6-.66.46-.45,1.04-.93.75-.58.62-.42,2.39.99" vector-effect="none" fill="#6ad5a3" fill-rule="evenodd" isolation="isolate"/>
    <path d="M494.95,245.08c-.38,0-.72-.06-1.05-.18-.32-.12-.6-.3-.84-.53-.24-.23-.42-.49-.55-.8-.13-.31-.2-.64-.2-1.01s.07-.7.2-1.01c.13-.31.32-.57.56-.8.24-.23.52-.4.84-.53.32-.12.67-.18,1.05-.18.42,0,.8.07,1.14.22.34.15.63.36.86.64l-.72.67c-.17-.19-.35-.33-.56-.43-.2-.1-.43-.14-.67-.14-.23,0-.44.04-.63.11-.19.07-.35.18-.49.32-.14.14-.25.3-.32.49-.08.19-.11.4-.11.63s.04.44.11.63c.08.19.18.35.32.49.14.14.3.25.49.32.19.07.4.11.63.11.24,0,.46-.05.67-.14.2-.1.39-.24.56-.43l.72.67c-.23.28-.52.5-.86.65-.34.15-.72.22-1.15.22M497.65,244.99v-4.87h2.11c.44,0,.81.07,1.13.21.32.14.56.34.73.61.17.26.26.58.26.95s-.09.67-.26.94c-.17.26-.42.46-.73.6-.32.14-.69.21-1.13.21h-1.48l.5-.49v1.85h-1.13M500.75,244.99l-1.22-1.77h1.2l1.23,1.77h-1.22M498.78,243.27l-.5-.53h1.42c.35,0,.61-.08.78-.23.17-.15.26-.36.26-.62s-.09-.48-.26-.63c-.17-.15-.43-.22-.78-.22h-1.42l.5-.54v2.76M504.86,245.08c-.69,0-1.23-.19-1.62-.58-.39-.39-.58-.93-.58-1.65v-2.73h1.13v2.69c0,.46.1.8.29,1,.19.2.46.31.8.31s.61-.1.8-.31c.19-.2.29-.54.29-1v-2.69h1.11v2.73c0,.71-.19,1.26-.58,1.65-.39.39-.93.58-1.62.58M510.54,245.08c-.38,0-.72-.06-1.05-.18-.32-.12-.6-.3-.84-.53-.24-.23-.42-.49-.55-.8-.13-.31-.2-.64-.2-1.01s.07-.7.2-1.01c.13-.31.32-.57.56-.8.24-.23.52-.4.84-.53.32-.12.67-.18,1.05-.18.42,0,.8.07,1.14.22.34.15.63.36.86.64l-.72.67c-.17-.19-.35-.33-.56-.43-.2-.1-.43-.14-.67-.14-.23,0-.44.04-.63.11-.19.07-.35.18-.49.32-.14.14-.25.3-.32.49-.08.19-.11.4-.11.63s.04.44.11.63c.08.19.18.35.32.49.14.14.3.25.49.32.19.07.4.11.63.11.24,0,.46-.05.67-.14.2-.1.39-.24.56-.43l.72.67c-.23.28-.52.5-.86.65-.34.15-.72.22-1.15.22M514.29,242.08h2.34v.88h-2.34v-.88M514.37,244.09h2.65v.9h-3.77v-4.87h3.68v.9h-2.56v3.06M519.41,245.08c-.39,0-.76-.05-1.12-.16-.36-.1-.64-.24-.86-.41l.38-.85c.21.15.46.27.74.37.29.1.57.14.87.14.22,0,.4-.02.54-.07.14-.04.24-.11.3-.18.07-.08.1-.17.1-.27,0-.13-.05-.23-.15-.31-.1-.08-.24-.14-.4-.19-.17-.05-.35-.1-.55-.14-.2-.04-.4-.1-.61-.16-.2-.06-.39-.15-.55-.25-.17-.1-.3-.24-.41-.4-.1-.17-.16-.38-.16-.64,0-.28.08-.53.23-.76.15-.23.38-.41.68-.55.3-.14.69-.21,1.14-.21.31,0,.61.04.9.11s.56.18.79.32l-.35.86c-.23-.13-.45-.23-.68-.29s-.45-.09-.67-.09-.4.03-.54.08-.24.12-.3.2c-.06.08-.09.18-.09.28,0,.13.05.23.15.3.1.08.24.14.4.18s.35.09.55.14c.2.05.4.1.61.16.2.06.39.14.55.24.17.1.3.24.41.4.1.17.16.38.16.63,0,.27-.08.52-.23.75s-.38.41-.69.55c-.3.14-.69.21-1.15.21" vector-effect="none" fill="#fff"/>
  </g>
  <g id="Bendones">
    <path id="Bendones-2" data-name="Bendones" d="M590.92,216.57l-2.78,10.05-.45,2.5,1.56,4.7-.18,1.59-1.51,3.51-.73.63-.64.69-1.13.96-1.32,1.4-.51.45-.37.5-.6.87-1.13.94-1.5,1.23-1.17.78-1.28.78-1.85,1.47-.46.76-.1.99.12,1.08.25.75.52,1.28.24.64.33,1.1.22.98.54.95.57.87.39.77.31,1.34.36.97.98,1.17.82.76.89.78,1.09,1.32-8.74,2.86-7.83,2.52-6.19,4.3-4.29-5.34-5.18-1.58-5.9-1.82-8.68-2.34,4.42-8.25,5.97,2.46,2.52.68.32-.51,1.01-.54,1.04-.31-.36-2.36-1.31-3.32,1.21-4.06.56-1.26,2.51-1.68.7-4.1.16-1.02-2.3-4.07.07-1.47-.53-1.78-1.69-1.9-1.61-.95-.74-.62-1.34.11-2.04-3.05,5.78-1.01,8.72-1.51,9.39-.93,4.61-.39-3.67-7.12,9.49.74,6.1-.87,6.34.91" vector-effect="none" fill="#bf7ce0" fill-rule="evenodd" isolation="isolate"/>
    <path d="M546.15,247.51v-4.87h2.38c.61,0,1.07.12,1.38.35.31.23.46.54.46.92,0,.26-.06.48-.19.66-.13.19-.3.33-.51.43-.22.1-.47.15-.75.15l.13-.29c.31,0,.58.05.81.15.24.1.42.25.55.44.13.19.2.43.2.72,0,.42-.16.74-.49.98-.33.23-.81.35-1.45.35h-2.52M547.27,246.66h1.32c.29,0,.51-.05.66-.14.15-.1.23-.25.23-.46s-.08-.36-.23-.46-.37-.15-.66-.15h-1.4v-.82h1.2c.27,0,.48-.05.63-.14.15-.1.22-.24.22-.43s-.07-.33-.22-.43c-.15-.1-.36-.14-.63-.14h-1.12v3.17M552.46,244.6h2.34v.88h-2.34v-.88M552.54,246.61h2.65v.9h-3.77v-4.87h3.68v.9h-2.56v3.06M555.98,247.51v-4.87h.93l2.87,3.51h-.45v-3.51h1.11v4.87h-.93l-2.88-3.51h.45v3.51h-1.11M561.5,247.51v-4.87h2.21c.53,0,1,.1,1.4.3s.72.48.95.85c.23.36.34.79.34,1.29s-.11.92-.34,1.28c-.23.36-.54.65-.95.85-.4.2-.87.3-1.4.3h-2.21M562.63,246.59h1.03c.32,0,.61-.06.85-.18.24-.12.42-.3.56-.53.13-.23.2-.49.2-.8s-.07-.58-.2-.8c-.13-.22-.32-.4-.56-.52-.24-.12-.52-.18-.85-.18h-1.03v3.02M569.63,247.59c-.39,0-.74-.06-1.07-.19-.33-.13-.61-.3-.85-.53-.24-.23-.42-.49-.56-.8-.13-.31-.2-.64-.2-1s.07-.7.2-1c.13-.31.32-.57.56-.8s.52-.4.85-.53c.32-.13.68-.19,1.06-.19s.74.06,1.06.19c.32.13.6.3.84.53.24.23.43.49.56.8.13.3.2.64.2,1.01s-.07.7-.2,1.01c-.13.31-.32.58-.56.8-.24.22-.52.4-.84.53-.32.13-.67.19-1.05.19M569.62,246.63c.22,0,.42-.04.6-.11.18-.07.34-.18.48-.32s.25-.3.32-.49c.08-.19.11-.4.11-.63s-.04-.44-.11-.63c-.08-.19-.18-.35-.32-.49-.14-.14-.3-.25-.48-.32-.19-.07-.39-.11-.61-.11s-.42.04-.6.11c-.18.07-.34.18-.48.32-.14.14-.25.3-.32.49-.08.19-.11.4-.11.63s.04.44.11.63c.08.19.18.36.32.5s.3.25.48.32c.19.07.39.11.61.11M573.02,247.51v-4.87h.93l2.87,3.51h-.45v-3.51h1.11v4.87h-.93l-2.88-3.51h.45v3.51h-1.11M579.57,244.6h2.34v.88h-2.34v-.88M579.66,246.61h2.65v.9h-3.77v-4.87h3.68v.9h-2.56v3.06M584.7,247.59c-.39,0-.76-.05-1.12-.16-.36-.1-.64-.24-.86-.41l.38-.85c.21.15.46.27.74.37.29.1.57.14.87.14.22,0,.4-.02.54-.07.14-.04.24-.11.3-.18.07-.08.1-.17.1-.27,0-.13-.05-.23-.15-.31-.1-.08-.24-.14-.4-.19-.17-.05-.35-.1-.55-.14s-.4-.1-.61-.16c-.2-.06-.39-.15-.55-.25-.17-.1-.3-.24-.41-.4s-.16-.38-.16-.64c0-.28.08-.53.23-.76.15-.23.38-.41.68-.55.3-.14.69-.21,1.14-.21.31,0,.61.04.9.11s.56.18.79.32l-.35.86c-.23-.13-.45-.23-.68-.29s-.45-.09-.67-.09-.4.03-.54.08-.24.12-.3.2c-.06.08-.09.18-.09.28,0,.13.05.23.15.3.1.08.24.14.4.18s.35.09.55.14c.2.05.4.1.61.16.2.06.39.14.55.24.17.1.3.24.41.4.1.17.16.38.16.63,0,.27-.08.52-.23.75s-.38.41-.69.55c-.3.14-.69.21-1.15.21" vector-effect="none" fill="#fff"/>
  </g>
  <g id="Box">
    <path id="Box-2" data-name="Box" d="M708.5,215.9l1.86,1.52.74.6.87.25,1.71.48,2.47,2.11,3.84.51.14.02.03.04.94,1.18.05.06.42.53.98.15,9.99,1.54,1.26,3.94-2.22,1.16-.51,1.19,3.15,4.09-1.02.67-.7,1.27-3.66,2.21-.31,1.16.17.82,1.82,2.32,3.36,3.58-4.69,2.86-16.6-13.07-.23-.18-7.27,8.48-4.23,4.94-.69.84-.14.73-.23,1.21-.18,1.01.13,1.37,1.2,1.66-.26.75-1.48,1.63-1.95,1.49-3.68,1.8-.27.08-.19.06-.18.44.11,5.99-.52,1.72-1.44,1.77.1.65.2.34.16.26v.33s0,1.35,0,1.35l2.68,3.14.94,2.48-.54,2.74.4,1.46,2.46,4.04-.17,1.28-3.04,4.22.2.69-.64,1.19-1.06,1.3-.23,2.32-.31.49-4.72,2.14-.07.09-.3.37-.28.02-6.32.47-13.02.66-3.64.43-10.54,1.13-5.51.45-10.36.21-5.68-21.94,2.77-16.78.48-3.76-6.35-2-1.13-.27-3.14-.41,3.34-2.67,3.67-.41,1.68-.48,1.13-.46.83-.55-.33-.39-.83-1.31-.94-.62-.98-.73-.2-.43-.77-1.25-.56-.67-.82-.37-3.23-2.12.9-3.6,3.53-2.93,5.53-4.52,4.59-4.17,3.2-3.7,4.36-5.32.54-3.68.23-.97.41.11,4.4.3,2.32-.54,3.52-2.47,2.25-.63,5.23-.38,1.16-.08h.02s10.69-.82,10.69-.82l1.37-.11,2.17-.17,5.64.68,3.33-.85.24-.03,4.29-.54,3.62-.16,8.53,1.05" vector-effect="none" fill="#345b2c" fill-rule="evenodd" isolation="isolate"/>
    <path d="M659.63,271.54v-4.87h2.38c.61,0,1.07.12,1.38.35.31.23.46.54.46.92,0,.26-.06.48-.19.66-.13.19-.3.33-.51.43-.22.1-.47.15-.75.15l.13-.29c.31,0,.58.05.81.15.24.1.42.25.55.44.13.19.2.43.2.72,0,.42-.16.74-.49.98-.33.23-.81.35-1.45.35h-2.52M660.75,270.69h1.32c.29,0,.51-.05.66-.14.15-.1.23-.25.23-.46s-.08-.36-.23-.46-.37-.15-.66-.15h-1.4v-.82h1.2c.27,0,.48-.05.63-.14.15-.1.22-.24.22-.43s-.07-.33-.22-.43c-.15-.1-.36-.14-.63-.14h-1.12v3.17M667.27,271.62c-.39,0-.74-.06-1.07-.19-.33-.13-.61-.3-.85-.53-.24-.23-.42-.49-.56-.8-.13-.31-.2-.64-.2-1s.07-.7.2-1c.13-.31.32-.57.56-.8s.52-.4.85-.53.68-.19,1.06-.19.74.06,1.06.19.6.3.84.53c.24.23.43.49.56.8.13.3.2.64.2,1.01s-.07.7-.2,1.01c-.13.31-.32.58-.56.8-.24.22-.52.4-.84.53-.32.13-.67.19-1.05.19M667.27,270.66c.22,0,.42-.04.6-.11.18-.07.34-.18.48-.32.14-.14.25-.3.32-.49.08-.19.11-.4.11-.63s-.04-.44-.11-.63c-.08-.19-.18-.35-.32-.49-.14-.14-.3-.25-.48-.32-.19-.07-.39-.11-.61-.11s-.42.04-.6.11c-.18.07-.34.18-.48.32-.14.14-.25.3-.32.49-.08.19-.11.4-.11.63s.04.44.11.63c.08.19.18.36.32.5.14.14.3.25.48.32s.39.11.61.11M670.11,271.54l2.09-2.89v.82l-2-2.8h1.28l1.38,1.96h-.54s1.36-1.96,1.36-1.96h1.22l-1.99,2.76v-.81l2.11,2.92h-1.3l-1.43-2.07h.51l-1.41,2.07h-1.29" vector-effect="none" fill="#fff"/>
  </g>
  <g id="Colloto">
    <polygon id="Colloto-2" data-name="Colloto" points="609.3 142.11 605.15 135.79 602.79 133.05 602.03 132.18 601 130.98 600.79 130.74 597.79 127.22 596.78 126.05 596.53 125.76 593.31 125.87 591.16 125.95 589.58 126 586.27 126.52 582.93 126.29 575.95 125.28 568.64 125 566.02 124.78 563.94 124.03 562.14 122.92 561.75 121.77 561.85 121.61 562.33 120.75 563.88 119.84 566.4 118 566.92 117.12 566.92 117.12 566.86 116.92 565.97 113.8 565.44 113.16 565.21 112.88 563.4 112.32 560.75 112.31 558.98 111.67 558.5 111.5 557.97 110.69 557.58 110.05 557.64 109.84 558.01 108.62 558.09 108.33 558.31 106.45 557.61 104.92 556.85 104.51 555.74 103.91 555.44 103.84 553.45 103.38 553.35 103.36 550.73 102.75 550.37 102.67 548.39 102.74 547.55 103.03 546.09 103.53 545.14 103.86 543.23 103.72 535.59 112.2 534.04 119.22 535.59 127.71 537.17 131.98 541.36 135.79 545.36 138.64 547.08 142.65 549.47 147.71 551.49 152.32 557.71 152.35 565.82 153.35 572.38 152.48 576.25 152.36 579.79 152.12 582.28 154.78 588.42 154.47 591.42 153.32 594.76 151.9 600.17 150.8 602.54 150.49 606.13 150.18 609.5 150.02 611.7 149.72 613.48 149.23 613.77 149.32 614.1 149.38 609.3 142.11" fill="#d3b890" isolation="isolate"/>
    <text id="_Trazado_compuesto_" data-name="&amp;lt;Trazado compuesto&amp;gt;" transform="translate(558.22 138.71)" fill="#fff" font-family="Montserrat-Bold, Montserrat" font-size="7" font-weight="700"><tspan x="0" y="0" letter-spacing="-.01em">C</tspan><tspan x="5.03" y="0" letter-spacing="0em">OL</tspan><tspan x="15.16" y="0" letter-spacing="-.01em">L</tspan><tspan x="19.31" y="0" letter-spacing="-.01em">OT</tspan><tspan x="29.4" y="0">O</tspan></text>
  </g>
</svg>